<svg width="20" height="52" viewBox="0 0 20 52" fill="none" xmlns="http://www.w3.org/2000/svg">
<path fill-rule="evenodd" clip-rule="evenodd" d="M0.370909 4.86721C0.207917 5.19572 1.09188 7.41188 1.49554 7.68605C1.67478 7.80787 1.69604 7.99143 1.56544 8.29102C1.31269 8.87134 1.87107 10.6318 2.3159 10.6574C2.64241 10.6761 2.77245 11.3789 2.50988 11.7071C2.33829 11.9216 3.20769 13.2932 3.46255 13.2101C3.5651 13.1766 3.61741 13.2725 3.58041 13.4265C3.54383 13.5788 3.58697 13.8454 3.67654 14.0193C3.76604 14.193 3.78355 14.4798 3.71549 14.6564C3.60932 14.9315 3.95285 16.1439 4.83759 18.6176C4.91717 18.84 4.89485 19.1979 4.788 19.4133C4.68127 19.6284 4.63632 19.9347 4.68816 20.0936C4.74006 20.2527 4.67692 20.5321 4.54816 20.7146C4.35054 20.9941 4.36651 21.0805 4.6495 21.2627C4.83416 21.3815 5.0427 21.4097 5.11269 21.3255C5.18285 21.2412 5.34877 21.1995 5.48154 21.2329C5.65293 21.2761 5.67114 21.3558 5.54444 21.5085C5.41606 21.6628 5.49761 21.7477 5.83446 21.8104C6.21928 21.882 6.31708 22.0088 6.3818 22.5206C6.42513 22.8632 6.43218 23.3522 6.39769 23.6072C6.36054 23.8816 6.46285 24.2645 6.64812 24.5453C6.8205 24.8062 6.96115 25.1115 6.96076 25.2238C6.96038 25.3361 7.1826 26.1792 7.45432 27.0972C7.75791 28.1228 7.87915 28.8183 7.76866 28.901C7.64243 28.9957 7.68612 29.0983 7.91561 29.2459C8.13172 29.3851 8.43605 30.0498 8.81507 31.2102C9.21952 32.4492 9.46146 32.965 9.63885 32.9671C9.77707 32.9687 9.92834 33.0876 9.97519 33.2312C10.0516 33.4653 10.1889 33.4874 10.5325 33.3211C10.7512 33.215 11.0849 33.6562 11.0251 33.9723C10.9363 34.4424 11.6131 34.9189 12.7298 35.1722C13.7015 35.3924 14.0435 35.2726 13.8792 34.7692C13.8178 34.581 13.9368 34.463 14.2458 34.4061C14.7466 34.3135 15.4204 33.3588 15.2826 32.9367C15.2369 32.7964 15.2904 32.5342 15.4019 32.3538C15.5132 32.1737 15.5309 31.9348 15.4414 31.8231C15.3517 31.7112 15.3793 31.5368 15.5025 31.4356C15.6276 31.3326 15.6387 31.1413 15.5274 31.0027C15.4179 30.8658 15.4183 30.7246 15.5284 30.6886C15.6386 30.6527 15.699 30.5324 15.6627 30.4211C15.6264 30.3099 15.7953 29.7456 16.0381 29.1667C16.3309 28.468 16.438 27.8424 16.3562 27.3058C16.221 26.418 16.2989 25.7328 16.5734 25.3916C16.6714 25.2699 16.7212 25.078 16.6844 24.965C16.5744 24.6281 16.7565 23.1495 16.9142 23.0981C16.9947 23.0718 16.9766 22.7936 16.8741 22.4797C16.7718 22.166 16.7697 21.6388 16.8695 21.3085C17.1599 20.3473 17.1923 19.0728 16.9368 18.6624C16.7558 18.3717 16.7733 18.2877 17.0119 18.3014C17.2658 18.316 17.2658 18.1645 17.0125 17.4758C16.7014 16.6295 16.8629 15.9996 17.4444 15.7932C17.6504 15.72 17.6087 15.4204 17.1955 14.0072C17.1154 13.7335 17.2045 13.2111 17.3983 12.8193C17.6755 12.2583 17.6821 12.1268 17.4319 12.1556C16.994 12.2059 16.9349 11.8738 17.3572 11.736C17.8422 11.5778 18.1452 10.8842 17.8987 10.4967C17.7795 10.3092 17.7875 10.0963 17.9178 9.98916C18.0413 9.88771 18.0926 9.65252 18.0319 9.46653C17.9712 9.28054 17.9923 9.04339 18.0788 8.93929C18.1654 8.8352 18.1353 8.56579 18.012 8.34048C17.8213 7.99232 17.8514 7.92684 18.2128 7.90336C18.555 7.88124 18.6613 7.71704 18.7594 7.0589C18.8263 6.60957 19.013 5.87765 19.1743 5.4324C19.3355 4.98721 19.5134 4.49699 19.5695 4.34326C19.6256 4.18952 19.6161 3.89423 19.5486 3.68723C19.4795 3.47561 19.5444 3.27211 19.6971 3.2223C19.8926 3.1585 19.9018 2.92972 19.7299 2.40271C19.5466 1.84105 19.3248 1.58279 18.7724 1.28742C18.3769 1.07626 17.9342 0.942079 17.7888 0.989526C17.6434 1.03697 17.354 0.987205 17.1455 0.878988C16.8013 0.699849 16.7754 0.708288 16.8614 0.971699C16.9133 1.13096 16.8312 1.30195 16.6789 1.35164C16.5265 1.40139 16.3967 1.55937 16.3903 1.70281C16.3827 1.86803 15.9977 2.09379 15.339 2.3187C14.7277 2.52753 14.1547 2.85256 13.9482 3.10735C13.755 3.34579 13.3654 3.67462 13.0824 3.83834C12.7995 4.00182 12.5059 4.33604 12.4299 4.58109C12.2658 5.1115 12.0449 5.22456 11.92 4.84189C11.8065 4.49387 11.621 4.55417 11.0811 5.11437C10.8456 5.35866 10.3479 5.65871 9.97502 5.78119C9.60223 5.90343 9.32175 6.07918 9.35194 6.17171C9.38213 6.26425 9.0881 6.50825 8.69867 6.71383C8.30906 6.91947 7.75785 7.29103 7.47346 7.53943C7.18906 7.78784 6.75903 8.05542 6.51774 8.13414C6.27645 8.21287 6.07286 8.41696 6.06514 8.58774C6.05705 8.77027 5.8229 8.97271 5.49732 9.07893C5.19128 9.17879 4.93765 9.3884 4.93042 9.54719C4.92307 9.71357 4.75697 9.84363 4.537 9.85584C4.30402 9.86863 4.18707 9.97022 4.23518 10.1177C4.28377 10.2666 4.17709 10.2586 3.95653 10.0966C3.7076 9.91393 3.45774 9.35422 3.13203 8.2492C2.87517 7.37727 2.55449 6.55635 2.41938 6.42502C2.28428 6.2937 2.02749 5.8986 1.84878 5.54716C1.67001 5.19554 1.38283 4.89989 1.2105 4.89003C1.03829 4.87993 0.920593 4.77189 0.949315 4.64953C1.02091 4.34267 0.541629 4.52311 0.370909 4.86721ZM15.2911 6.69019C15.4093 7.10645 15.4101 7.50329 15.2926 7.59973C15.1781 7.69401 15.141 8.12319 15.2104 8.55355C15.2798 8.9839 15.2655 9.35914 15.1787 9.38747C15.0918 9.41579 15.0615 9.56335 15.1112 9.71543C15.1608 9.8675 15.0793 10.0318 14.9301 10.0804C14.7808 10.1291 14.6993 10.2934 14.749 10.4455C14.7986 10.5975 14.7542 10.7497 14.6503 10.7836C14.5465 10.8175 14.5086 10.9447 14.5662 11.066C14.8214 11.6054 14.8017 11.9106 14.5069 11.9805C14.3228 12.024 14.2126 12.2199 14.2448 12.4456C14.3421 13.1242 14.1688 14.1738 13.834 14.9326C13.606 15.4496 13.579 15.792 13.743 16.0914C13.9276 16.4287 13.9073 16.5124 13.6453 16.4973C13.4254 16.4848 13.3474 16.5774 13.4117 16.7746C13.4649 16.9376 13.3863 17.1107 13.237 17.1594C13.0878 17.2081 12.9161 17.1036 12.8552 16.927C12.7706 16.6818 12.6643 16.789 12.4038 17.3835C12.2162 17.811 12.1059 18.2929 12.1586 18.4543C12.2313 18.6774 12.1336 18.7558 11.7519 18.7806C11.3737 18.8053 11.1471 18.9826 10.8353 19.4984C10.6076 19.8751 10.4643 20.2463 10.5169 20.3232C10.6546 20.5245 10.306 20.6033 10.0918 20.4191C9.84514 20.2071 9.47736 20.8158 9.69103 21.0824C9.93987 21.393 9.75667 21.5706 9.38622 21.378C9.20305 21.2828 8.97838 20.9751 8.88667 20.694C8.7635 20.3165 8.79063 20.2199 8.99044 20.3238C9.36908 20.5207 9.71882 20.1775 9.57833 19.7469C9.51374 19.549 9.53922 19.4068 9.63492 19.4309C9.86845 19.4897 10.0521 19.2105 10.161 18.6313C10.2175 18.3293 10.1718 18.1327 10.0372 18.0987C9.69185 18.0118 9.68454 17.7072 10.025 17.5888C10.359 17.4724 10.9599 16.6207 10.8802 16.3763C10.854 16.2961 10.7688 16.3594 10.6907 16.5168C10.4924 16.9164 9.99229 16.6839 9.95969 16.1773C9.93955 15.8628 10.0011 15.8081 10.2578 15.9126C10.4357 15.9851 10.6137 15.9792 10.6532 15.8996C10.6927 15.8201 10.8781 15.8344 11.0649 15.9315C11.4961 16.1557 11.9037 15.8329 11.757 15.3833C11.6822 15.154 11.7466 15.046 11.9509 15.0577C12.1447 15.0689 12.2215 14.9668 12.1603 14.7791C12.1071 14.6162 12.145 14.4564 12.2445 14.4239C12.344 14.3914 12.3877 14.2493 12.3416 14.1081C12.2955 13.9669 12.3643 13.7638 12.4945 13.6566C12.6247 13.5497 12.7033 13.3766 12.6691 13.2719C12.635 13.1674 12.4851 13.1217 12.3358 13.1704C12.1866 13.219 12.0221 13.1289 11.9703 12.97C11.9033 12.7649 11.9922 12.6808 12.2759 12.68C12.5209 12.6794 12.6485 12.5952 12.6052 12.4625C12.5663 12.3434 12.6723 12.254 12.8405 12.2637C13.0104 12.2733 13.1135 12.1803 13.0724 12.0543C13.0316 11.9293 13.1545 11.6857 13.3452 11.5127C13.5359 11.3397 13.7269 10.9123 13.7697 10.5626C13.8125 10.213 13.9197 9.7815 14.0082 9.60355C14.2326 9.15117 14.117 8.91537 13.5021 8.57083C12.8422 8.20121 12.4317 8.31963 12.2482 8.93242C12.1707 9.19104 11.9913 9.52775 11.8496 9.68045C11.5944 9.95522 11.5242 9.80926 11.3093 8.55937C11.2957 8.47958 11.4793 8.35095 11.7173 8.27329C11.9553 8.19562 12.156 8.00147 12.1631 7.8417C12.1709 7.66987 12.4225 7.47499 12.7794 7.36468C13.627 7.1024 14.7196 6.502 14.8583 6.2224C15.0361 5.86395 15.0651 5.89508 15.2911 6.69019ZM8.35459 10.2493C8.41077 10.4834 8.5353 10.4891 8.91316 10.2745C9.4498 9.96985 9.56809 10.1018 9.34765 10.759C9.17487 11.2747 9.36176 11.4893 9.84633 11.3312C10.5622 11.0976 10.3424 12.0045 9.59958 12.3483C9.16905 12.5475 8.95762 12.5134 8.50416 12.1719C7.91485 11.728 7.17882 11.7791 7.33345 12.253C7.38956 12.425 7.59441 12.4738 7.87585 12.382C8.41903 12.2048 8.59031 12.5641 8.19291 13.0471C7.87598 13.4319 7.95617 13.9868 8.31207 13.8723C8.43669 13.8323 8.34498 14.0346 8.10842 14.3216C7.85654 14.6273 7.58528 14.8001 7.4538 14.7381C7.03821 14.5427 6.91251 14.7322 7.13548 15.2175C7.3546 15.694 7.25085 15.7943 6.37302 15.9543C6.07171 16.0092 6.00392 15.3364 6.27363 14.9663C6.51788 14.6311 6.51002 14.5867 6.1953 14.522C6.00304 14.4823 5.78885 14.5183 5.71929 14.602C5.6499 14.6856 5.45227 14.6632 5.28002 14.5524C5.03607 14.3954 4.99559 14.2762 5.09687 14.0138C5.16844 13.8283 5.1377 13.4942 5.02852 13.2712C4.69899 12.598 5.05632 12.1174 6.13246 11.7868C6.6585 11.6252 7.15376 11.3625 7.23284 11.2031C7.31192 11.0437 7.52314 10.8654 7.70221 10.807C7.88128 10.7486 7.99794 10.6418 7.96134 10.5695C7.77493 10.2018 7.80406 9.93349 8.0298 9.94019C8.16886 9.94439 8.31487 10.0834 8.35459 10.2493ZM11.2524 11.0764C11.3469 11.1577 11.338 11.2524 11.2327 11.2868C11.1275 11.3211 11.0141 11.2663 10.9811 11.1649C10.948 11.0635 10.9567 10.9689 11.0007 10.9546C11.0446 10.9402 11.1578 10.9951 11.2524 11.0764ZM4.78386 15.0608C4.77409 15.2265 4.71697 15.1968 4.63822 14.9849C4.56705 14.7932 4.57426 14.6705 4.65428 14.7121C4.73429 14.7537 4.79271 14.9107 4.78386 15.0608ZM11.0222 14.9714C10.8919 15.0779 10.7616 15.2553 10.7328 15.3652C10.7039 15.4754 10.534 15.4711 10.3549 15.3559C10.0719 15.1737 10.1097 15.1225 10.6445 14.962C10.9824 14.8605 11.1525 14.8648 11.0222 14.9714ZM7.97536 19.335C7.96664 19.4782 7.89172 19.3878 7.80902 19.1343C7.72633 18.8809 7.73359 18.7639 7.82501 18.8742C7.91667 18.9846 7.98433 19.192 7.97536 19.335ZM8.35534 20.9057C8.40688 21.0637 8.35099 21.1684 8.23106 21.1382C8.11113 21.1079 7.98757 21.0053 7.95642 20.9098C7.92527 20.8143 7.98122 20.7098 8.0807 20.6773C8.18019 20.6449 8.3038 20.7477 8.35534 20.9057ZM11.4868 20.0759C11.5365 20.228 11.4957 20.379 11.3962 20.4114C11.2967 20.4439 11.1747 20.346 11.1251 20.1939C11.0755 20.0419 11.1163 19.8909 11.2158 19.8584C11.3152 19.826 11.4372 19.9238 11.4868 20.0759ZM11.04 21.7732C11.0695 21.8637 10.9716 21.9776 10.8223 22.0263C10.6731 22.075 10.5113 21.993 10.4627 21.8441C10.4089 21.6793 10.4939 21.5803 10.6803 21.5909C10.8486 21.6007 11.0104 21.6827 11.04 21.7732ZM9.93557 22.2349C9.89548 22.3157 9.74155 22.3732 9.59376 22.3625C9.43023 22.3508 9.45885 22.2931 9.66668 22.2155C9.85474 22.1454 9.97565 22.1541 9.93557 22.2349ZM13.1735 21.5651C13.2231 21.7172 13.1823 21.8682 13.0829 21.9007C12.9834 21.9331 12.8614 21.8352 12.8118 21.6832C12.7622 21.5311 12.8029 21.3801 12.9024 21.3477C13.0019 21.3152 13.1239 21.4131 13.1735 21.5651ZM10.7055 22.9992C10.6982 23.1604 10.7737 23.2659 10.8732 23.2335C10.9727 23.201 11.0596 23.048 11.0666 22.8934C11.0799 22.596 12.0266 21.9683 12.3421 22.0477C12.4446 22.0736 12.5221 22.2309 12.5148 22.3972C12.5073 22.5639 12.4182 22.679 12.3168 22.6535C12.2156 22.628 12.1011 22.7935 12.0624 23.0213C12.0058 23.3545 12.0647 23.4313 12.3641 23.4148C12.5685 23.4036 12.7952 23.275 12.8676 23.1289C12.9625 22.9377 13.0319 23.0007 13.1166 23.3561C13.2203 23.7903 13.1777 23.8452 12.7542 23.8223C12.1242 23.788 12.141 23.7713 12.3429 24.2326C12.4396 24.4534 12.4391 24.5066 12.3418 24.3507C12.2445 24.1948 11.8843 24.06 11.5412 24.051C10.7056 24.0293 10.5347 24.1024 10.7612 24.3852C11.0438 24.7379 10.7409 24.9743 10.4013 24.6664C10.1464 24.4355 10.1203 24.4401 10.2006 24.7027C10.2515 24.8687 10.2106 25.1378 10.11 25.3005C9.92108 25.6065 10.226 26.3 10.5089 26.2077C10.899 26.0804 10.7721 26.6348 10.3752 26.7906C10.1022 26.8978 9.89972 26.866 9.84806 26.7076C9.80193 26.5662 9.86521 26.4148 9.98839 26.371C10.1253 26.3225 10.0583 26.2362 9.81616 26.1498C9.34045 25.9799 9.16678 25.501 9.31338 24.7622C9.40988 24.2758 9.43558 24.2565 9.55228 24.5822C9.67427 24.923 9.6955 24.9108 9.87189 24.3976C9.97748 24.0907 10.1704 23.8754 10.3088 23.9101C10.4536 23.9465 10.5177 23.853 10.463 23.6853C10.4115 23.5273 10.2472 23.4377 10.0979 23.4864C9.94871 23.5351 9.78314 23.4417 9.72997 23.2787C9.66875 23.091 9.7455 22.9889 9.93928 23.0001C10.1075 23.0097 10.2198 22.9398 10.1888 22.8449C10.1579 22.75 10.2644 22.6797 10.4255 22.6889C10.5866 22.6982 10.7126 22.8378 10.7055 22.9992ZM9.67227 23.7152C9.68688 23.76 9.63411 23.8743 9.55508 23.9695C9.47604 24.0646 9.38268 24.0545 9.34768 23.9472C9.31268 23.8399 9.36538 23.7254 9.46487 23.693C9.56435 23.6605 9.65765 23.6704 9.67227 23.7152ZM14.0035 23.1442C13.831 23.492 13.8049 23.5005 13.7191 23.2372C13.6671 23.078 13.706 22.9211 13.8055 22.8886C13.9049 22.8562 13.9484 22.6815 13.9021 22.5002C13.8218 22.1868 13.8269 22.1851 14.0056 22.466C14.1088 22.6285 14.108 22.9337 14.0035 23.1442ZM12.1537 25.0512C12.1695 25.2194 12.3274 25.2009 12.6839 24.9894C13.3197 24.6121 13.3434 24.6896 12.8781 25.6275C12.6591 26.0691 12.5834 26.4805 12.6955 26.6205C12.8009 26.752 12.802 26.8872 12.6981 26.9211C12.5943 26.955 12.4561 26.7362 12.391 26.4349C12.326 26.1337 12.1309 25.796 11.9576 25.6844C11.5984 25.4531 11.5566 24.7853 11.9024 24.8012C12.0283 24.8068 12.1415 24.9194 12.1537 25.0512ZM10.9752 28.0559C10.9946 28.4643 10.9567 28.5235 10.8208 28.2984C10.7216 28.1344 10.5652 28.0249 10.4732 28.0549C10.3809 28.085 10.237 27.8997 10.1533 27.6431C10.0695 27.3863 9.86393 27.1685 9.69631 27.1589C9.52862 27.1492 9.41103 27.058 9.43485 26.9562C9.45849 26.8545 9.80913 26.9385 10.2139 27.1432C10.8217 27.4505 10.9542 27.6092 10.9752 28.0559ZM12.1921 28.9848C12.2354 29.1175 12.2038 29.426 12.122 29.6705C11.9812 30.0909 11.9623 30.0826 11.772 29.5178C11.6335 29.1069 11.6554 28.893 11.842 28.8321C11.9913 28.7834 12.1488 28.8521 12.1921 28.9848ZM11.7482 44.0555C11.0163 44.8723 10.6893 45.527 10.8048 45.9458C11.0804 46.9472 11.0782 46.9526 10.3126 47.159C9.40372 47.4041 9.26078 47.8468 9.81869 48.6889C10.6299 49.9133 11.6877 50.7056 12.2611 50.5185C12.4492 50.4572 12.8949 50.5922 13.2517 50.8184C13.6085 51.0446 13.9937 51.1531 14.1076 51.0594C14.2217 50.9657 14.4177 51.0337 14.5432 51.2104C14.7584 51.5138 14.7971 51.5053 15.2284 51.0609C15.4797 50.8018 15.8521 50.5806 16.0558 50.5695C16.2594 50.5583 16.4089 50.4944 16.3879 50.4276C16.3415 50.2798 17.0891 49.5552 17.389 49.4573C17.6516 49.3716 17.6955 48.8442 17.4639 48.5553C17.2223 48.2537 17.3593 46.888 17.6558 46.6442C17.8511 46.4836 17.8299 46.2988 17.5584 45.7986C17.3671 45.4467 17.1541 45.0331 17.0847 44.8797C16.9257 44.528 16.5247 44.018 16.1829 43.7322C16.0382 43.6111 15.8325 43.3954 15.7261 43.2526C15.4544 42.8881 13.5012 42.8988 13.4107 43.2653C13.3659 43.4465 13.3203 43.4681 13.2732 43.3303C13.1572 42.99 12.3659 43.3663 11.7482 44.0555ZM12.1286 44.1251C12.1432 44.1699 12.0904 44.2842 12.0114 44.3794C11.9324 44.4745 11.839 44.4644 11.804 44.3571C11.769 44.2498 11.8217 44.1353 11.9212 44.1029C12.0207 44.0704 12.114 44.0803 12.1286 44.1251ZM14.8732 45.1764C14.9424 45.3886 14.0626 46.2596 13.6397 46.3975C13.1749 46.5492 13.0755 46.0858 13.4855 45.6771C14.1206 45.0438 14.7552 44.8148 14.8732 45.1764Z" fill="#D9D9D9"/>
</svg>
