<svg width="392" height="53" viewBox="0 0 392 53" fill="none" xmlns="http://www.w3.org/2000/svg">
<rect width="392" height="53" rx="16" fill="#393953"/>
<rect x="0.5" y="0.5" width="391" height="52" rx="15.5" stroke="url(#paint0_linear_345_375)" stroke-opacity="0.5" style="mix-blend-mode:soft-light"/>
<path d="M31.294 32H25.26V22.074H31.294V23.348H26.632V26.4H30.86V27.688H26.632V30.726H31.294V32ZM34.2117 28.108V32H32.8957V25.266H34.1837V26.232C34.6317 25.4573 35.3224 25.07 36.2557 25.07C37.0304 25.07 37.623 25.3173 38.0337 25.812C38.4537 26.3067 38.6637 26.946 38.6637 27.73V32H37.3477V27.954C37.3477 26.8247 36.825 26.26 35.7797 26.26C35.285 26.26 34.8977 26.4373 34.6177 26.792C34.347 27.1373 34.2117 27.576 34.2117 28.108ZM42.367 23.138V25.266H43.823V26.456H42.367V29.956C42.367 30.2733 42.437 30.5067 42.577 30.656C42.7263 30.8053 42.969 30.88 43.305 30.88C43.501 30.88 43.6737 30.8613 43.823 30.824V31.944C43.599 32.028 43.3003 32.07 42.927 32.07C42.3483 32.07 41.891 31.902 41.555 31.566C41.219 31.23 41.051 30.7587 41.051 30.152V26.456H39.763V25.266H40.127C40.4723 25.266 40.729 25.1727 40.897 24.986C41.0743 24.79 41.163 24.538 41.163 24.23V23.138H42.367ZM46.2112 27.94H49.8932C49.8746 27.436 49.7066 27.0253 49.3892 26.708C49.0719 26.3813 48.6239 26.218 48.0452 26.218C47.5226 26.218 47.0932 26.3907 46.7572 26.736C46.4212 27.072 46.2392 27.4733 46.2112 27.94ZM50.0892 29.69L51.2232 30.082C51.0272 30.7073 50.6632 31.2207 50.1312 31.622C49.5992 32.014 48.9552 32.21 48.1992 32.21C47.2566 32.21 46.4539 31.888 45.7912 31.244C45.1379 30.5907 44.8112 29.7133 44.8112 28.612C44.8112 27.5853 45.1286 26.736 45.7632 26.064C46.3979 25.392 47.1539 25.056 48.0312 25.056C49.0486 25.056 49.8419 25.378 50.4112 26.022C50.9806 26.6567 51.2652 27.5107 51.2652 28.584C51.2652 28.752 51.2559 28.892 51.2372 29.004H46.1692C46.1786 29.6013 46.3746 30.0913 46.7572 30.474C47.1492 30.8567 47.6299 31.048 48.1992 31.048C49.1606 31.048 49.7906 30.5953 50.0892 29.69ZM56.5291 25.196V26.596C56.3331 26.568 56.1418 26.554 55.9551 26.554C54.7231 26.554 54.1071 27.2447 54.1071 28.626V32H52.7911V25.266H54.0791V26.442C54.4898 25.5833 55.1618 25.154 56.0951 25.154C56.2444 25.154 56.3891 25.168 56.5291 25.196ZM61.9777 27.94H65.6597C65.6411 27.436 65.4731 27.0253 65.1557 26.708C64.8384 26.3813 64.3904 26.218 63.8117 26.218C63.2891 26.218 62.8597 26.3907 62.5237 26.736C62.1877 27.072 62.0057 27.4733 61.9777 27.94ZM65.8557 29.69L66.9897 30.082C66.7937 30.7073 66.4297 31.2207 65.8977 31.622C65.3657 32.014 64.7217 32.21 63.9657 32.21C63.0231 32.21 62.2204 31.888 61.5577 31.244C60.9044 30.5907 60.5777 29.7133 60.5777 28.612C60.5777 27.5853 60.8951 26.736 61.5297 26.064C62.1644 25.392 62.9204 25.056 63.7977 25.056C64.8151 25.056 65.6084 25.378 66.1777 26.022C66.7471 26.6567 67.0317 27.5107 67.0317 28.584C67.0317 28.752 67.0224 28.892 67.0037 29.004H61.9357C61.9451 29.6013 62.1411 30.0913 62.5237 30.474C62.9157 30.8567 63.3964 31.048 63.9657 31.048C64.9271 31.048 65.5571 30.5953 65.8557 29.69ZM71.8616 28.556H68.0676V27.408H71.8616V28.556ZM74.7642 32H73.4622V25.266H74.7222V26.162C74.9276 25.8073 75.2169 25.5367 75.5902 25.35C75.9636 25.1633 76.3556 25.07 76.7662 25.07C77.2049 25.07 77.6062 25.1773 77.9702 25.392C78.3342 25.6067 78.6049 25.924 78.7822 26.344C79.2489 25.4947 80.0002 25.07 81.0362 25.07C81.6802 25.07 82.2262 25.2893 82.6742 25.728C83.1316 26.1667 83.3602 26.8013 83.3602 27.632V32H82.0582V27.772C82.0582 27.3053 81.9369 26.932 81.6942 26.652C81.4609 26.372 81.1062 26.232 80.6302 26.232C80.1729 26.232 79.7996 26.3953 79.5102 26.722C79.2209 27.0393 79.0762 27.4407 79.0762 27.926V32H77.7602V27.772C77.7602 27.3053 77.6389 26.932 77.3962 26.652C77.1629 26.372 76.8082 26.232 76.3322 26.232C75.8656 26.232 75.4876 26.3907 75.1982 26.708C74.9089 27.0253 74.7642 27.436 74.7642 27.94V32ZM84.8921 30.194C84.8921 29.6153 85.0788 29.1533 85.4521 28.808C85.8255 28.4533 86.3201 28.234 86.9361 28.15L88.7561 27.884C89.1015 27.8373 89.2741 27.6693 89.2741 27.38C89.2741 27.0253 89.1528 26.736 88.9101 26.512C88.6675 26.288 88.3035 26.176 87.8181 26.176C87.3701 26.176 87.0155 26.302 86.7541 26.554C86.4928 26.7967 86.3388 27.1233 86.2921 27.534L85.0321 27.24C85.0975 26.596 85.3915 26.0733 85.9141 25.672C86.4368 25.2613 87.0621 25.056 87.7901 25.056C88.7421 25.056 89.4468 25.2893 89.9041 25.756C90.3615 26.2133 90.5901 26.8013 90.5901 27.52V30.894C90.5901 31.2953 90.6181 31.664 90.6741 32H89.3861C89.3395 31.72 89.3161 31.4167 89.3161 31.09C89.1295 31.3887 88.8541 31.65 88.4901 31.874C88.1355 32.098 87.6875 32.21 87.1461 32.21C86.4835 32.21 85.9421 32.014 85.5221 31.622C85.1021 31.2207 84.8921 30.7447 84.8921 30.194ZM87.3281 31.104C87.9161 31.104 88.3875 30.9453 88.7421 30.628C89.0968 30.3107 89.2741 29.8067 89.2741 29.116V28.808L87.2161 29.116C86.9175 29.1627 86.6795 29.27 86.5021 29.438C86.3248 29.606 86.2361 29.8347 86.2361 30.124C86.2361 30.3853 86.3341 30.614 86.5301 30.81C86.7355 31.006 87.0015 31.104 87.3281 31.104ZM93.7882 32H92.4862V25.266H93.7882V32ZM92.4582 23.39C92.2809 23.2033 92.1922 22.9793 92.1922 22.718C92.1922 22.4567 92.2809 22.2327 92.4582 22.046C92.6449 21.8593 92.8689 21.766 93.1302 21.766C93.3916 21.766 93.6156 21.8593 93.8022 22.046C93.9889 22.2233 94.0822 22.4473 94.0822 22.718C94.0822 22.9793 93.9889 23.2033 93.8022 23.39C93.6156 23.5673 93.3916 23.656 93.1302 23.656C92.8689 23.656 92.6449 23.5673 92.4582 23.39ZM97.1893 32H95.8733V21.864H97.1893V32ZM103.936 28.038V32H102.62V21.864H103.936V26.05C104.384 25.3967 105.065 25.07 105.98 25.07C106.755 25.07 107.347 25.3173 107.758 25.812C108.178 26.3067 108.388 26.946 108.388 27.73V32H107.072V27.954C107.072 26.8247 106.549 26.26 105.504 26.26C105.019 26.26 104.641 26.428 104.37 26.764C104.099 27.0907 103.955 27.5153 103.936 28.038ZM111.181 27.94H114.863C114.845 27.436 114.677 27.0253 114.359 26.708C114.042 26.3813 113.594 26.218 113.015 26.218C112.493 26.218 112.063 26.3907 111.727 26.736C111.391 27.072 111.209 27.4733 111.181 27.94ZM115.059 29.69L116.193 30.082C115.997 30.7073 115.633 31.2207 115.101 31.622C114.569 32.014 113.925 32.21 113.169 32.21C112.227 32.21 111.424 31.888 110.761 31.244C110.108 30.5907 109.781 29.7133 109.781 28.612C109.781 27.5853 110.099 26.736 110.733 26.064C111.368 25.392 112.124 25.056 113.001 25.056C114.019 25.056 114.812 25.378 115.381 26.022C115.951 26.6567 116.235 27.5107 116.235 28.584C116.235 28.752 116.226 28.892 116.207 29.004H111.139C111.149 29.6013 111.345 30.0913 111.727 30.474C112.119 30.8567 112.6 31.048 113.169 31.048C114.131 31.048 114.761 30.5953 115.059 29.69ZM121.499 25.196V26.596C121.303 26.568 121.112 26.554 120.925 26.554C119.693 26.554 119.077 27.2447 119.077 28.626V32H117.761V25.266H119.049V26.442C119.46 25.5833 120.132 25.154 121.065 25.154C121.215 25.154 121.359 25.168 121.499 25.196ZM123.533 27.94H127.215C127.197 27.436 127.029 27.0253 126.711 26.708C126.394 26.3813 125.946 26.218 125.367 26.218C124.845 26.218 124.415 26.3907 124.079 26.736C123.743 27.072 123.561 27.4733 123.533 27.94ZM127.411 29.69L128.545 30.082C128.349 30.7073 127.985 31.2207 127.453 31.622C126.921 32.014 126.277 32.21 125.521 32.21C124.579 32.21 123.776 31.888 123.113 31.244C122.46 30.5907 122.133 29.7133 122.133 28.612C122.133 27.5853 122.451 26.736 123.085 26.064C123.72 25.392 124.476 25.056 125.353 25.056C126.371 25.056 127.164 25.378 127.733 26.022C128.303 26.6567 128.587 27.5107 128.587 28.584C128.587 28.752 128.578 28.892 128.559 29.004H123.491C123.501 29.6013 123.697 30.0913 124.079 30.474C124.471 30.8567 124.952 31.048 125.521 31.048C126.483 31.048 127.113 30.5953 127.411 29.69Z" fill="#B5B5B5"/>
<defs>
<linearGradient id="paint0_linear_345_375" x1="196" y1="0" x2="196" y2="53" gradientUnits="userSpaceOnUse">
<stop stop-color="white"/>
<stop offset="1" stop-color="white" stop-opacity="0"/>
</linearGradient>
</defs>
</svg>
