<svg width="392" height="53" viewBox="0 0 392 53" fill="none" xmlns="http://www.w3.org/2000/svg">
<rect width="392" height="53" rx="16" fill="#393953"/>
<rect x="0.5" y="0.5" width="391" height="52" rx="15.5" stroke="url(#paint0_linear_345_378)" stroke-opacity="0.5" style="mix-blend-mode:soft-light"/>
<path d="M31.294 32H25.26V22.074H31.294V23.348H26.632V26.4H30.86V27.688H26.632V30.726H31.294V32ZM34.2117 28.108V32H32.8957V25.266H34.1837V26.232C34.6317 25.4573 35.3224 25.07 36.2557 25.07C37.0304 25.07 37.623 25.3173 38.0337 25.812C38.4537 26.3067 38.6637 26.946 38.6637 27.73V32H37.3477V27.954C37.3477 26.8247 36.825 26.26 35.7797 26.26C35.285 26.26 34.8977 26.4373 34.6177 26.792C34.347 27.1373 34.2117 27.576 34.2117 28.108ZM42.367 23.138V25.266H43.823V26.456H42.367V29.956C42.367 30.2733 42.437 30.5067 42.577 30.656C42.7263 30.8053 42.969 30.88 43.305 30.88C43.501 30.88 43.6737 30.8613 43.823 30.824V31.944C43.599 32.028 43.3003 32.07 42.927 32.07C42.3483 32.07 41.891 31.902 41.555 31.566C41.219 31.23 41.051 30.7587 41.051 30.152V26.456H39.763V25.266H40.127C40.4723 25.266 40.729 25.1727 40.897 24.986C41.0743 24.79 41.163 24.538 41.163 24.23V23.138H42.367ZM46.2112 27.94H49.8932C49.8746 27.436 49.7066 27.0253 49.3892 26.708C49.0719 26.3813 48.6239 26.218 48.0452 26.218C47.5226 26.218 47.0932 26.3907 46.7572 26.736C46.4212 27.072 46.2392 27.4733 46.2112 27.94ZM50.0892 29.69L51.2232 30.082C51.0272 30.7073 50.6632 31.2207 50.1312 31.622C49.5992 32.014 48.9552 32.21 48.1992 32.21C47.2566 32.21 46.4539 31.888 45.7912 31.244C45.1379 30.5907 44.8112 29.7133 44.8112 28.612C44.8112 27.5853 45.1286 26.736 45.7632 26.064C46.3979 25.392 47.1539 25.056 48.0312 25.056C49.0486 25.056 49.8419 25.378 50.4112 26.022C50.9806 26.6567 51.2652 27.5107 51.2652 28.584C51.2652 28.752 51.2559 28.892 51.2372 29.004H46.1692C46.1786 29.6013 46.3746 30.0913 46.7572 30.474C47.1492 30.8567 47.6299 31.048 48.1992 31.048C49.1606 31.048 49.7906 30.5953 50.0892 29.69ZM56.5291 25.196V26.596C56.3331 26.568 56.1418 26.554 55.9551 26.554C54.7231 26.554 54.1071 27.2447 54.1071 28.626V32H52.7911V25.266H54.0791V26.442C54.4898 25.5833 55.1618 25.154 56.0951 25.154C56.2444 25.154 56.3891 25.168 56.5291 25.196ZM62.4257 34.66H61.1237V25.266H62.3977V26.316C62.5937 25.9613 62.8877 25.672 63.2797 25.448C63.6717 25.224 64.1291 25.112 64.6517 25.112C65.6224 25.112 66.3784 25.4433 66.9197 26.106C67.4704 26.7687 67.7457 27.6087 67.7457 28.626C67.7457 29.6527 67.4611 30.502 66.8917 31.174C66.3317 31.846 65.5711 32.182 64.6097 32.182C64.1151 32.182 63.6764 32.0793 63.2937 31.874C62.9111 31.6687 62.6217 31.4073 62.4257 31.09V34.66ZM66.4017 28.626C66.4017 27.9447 66.2197 27.3847 65.8557 26.946C65.5011 26.498 65.0204 26.274 64.4137 26.274C63.8164 26.274 63.3311 26.498 62.9577 26.946C62.5937 27.3847 62.4117 27.9447 62.4117 28.626C62.4117 29.326 62.5937 29.9 62.9577 30.348C63.3311 30.7867 63.8164 31.006 64.4137 31.006C65.0111 31.006 65.4917 30.7867 65.8557 30.348C66.2197 29.9 66.4017 29.326 66.4017 28.626ZM68.8486 30.194C68.8486 29.6153 69.0352 29.1533 69.4086 28.808C69.7819 28.4533 70.2766 28.234 70.8926 28.15L72.7126 27.884C73.0579 27.8373 73.2306 27.6693 73.2306 27.38C73.2306 27.0253 73.1092 26.736 72.8666 26.512C72.6239 26.288 72.2599 26.176 71.7746 26.176C71.3266 26.176 70.9719 26.302 70.7106 26.554C70.4492 26.7967 70.2952 27.1233 70.2486 27.534L68.9886 27.24C69.0539 26.596 69.3479 26.0733 69.8706 25.672C70.3932 25.2613 71.0186 25.056 71.7466 25.056C72.6986 25.056 73.4032 25.2893 73.8606 25.756C74.3179 26.2133 74.5466 26.8013 74.5466 27.52V30.894C74.5466 31.2953 74.5746 31.664 74.6306 32H73.3426C73.2959 31.72 73.2726 31.4167 73.2726 31.09C73.0859 31.3887 72.8106 31.65 72.4466 31.874C72.0919 32.098 71.6439 32.21 71.1026 32.21C70.4399 32.21 69.8986 32.014 69.4786 31.622C69.0586 31.2207 68.8486 30.7447 68.8486 30.194ZM71.2846 31.104C71.8726 31.104 72.3439 30.9453 72.6986 30.628C73.0532 30.3107 73.2306 29.8067 73.2306 29.116V28.808L71.1726 29.116C70.8739 29.1627 70.6359 29.27 70.4586 29.438C70.2812 29.606 70.1926 29.8347 70.1926 30.124C70.1926 30.3853 70.2906 30.614 70.4866 30.81C70.6919 31.006 70.9579 31.104 71.2846 31.104ZM75.8127 30.25L77.0027 29.83C77.0494 30.194 77.208 30.4973 77.4787 30.74C77.7494 30.9733 78.1134 31.09 78.5707 31.09C78.9254 31.09 79.2054 31.006 79.4107 30.838C79.616 30.6607 79.7187 30.446 79.7187 30.194C79.7187 29.746 79.4294 29.4567 78.8507 29.326L77.7027 29.074C77.18 28.962 76.7694 28.738 76.4707 28.402C76.172 28.066 76.0227 27.66 76.0227 27.184C76.0227 26.6053 76.256 26.106 76.7227 25.686C77.1987 25.266 77.7634 25.056 78.4167 25.056C78.846 25.056 79.2287 25.1213 79.5647 25.252C79.9007 25.3733 80.162 25.5367 80.3487 25.742C80.5354 25.9473 80.6754 26.1387 80.7687 26.316C80.862 26.4933 80.932 26.6753 80.9787 26.862L79.8167 27.296C79.798 27.184 79.7654 27.0767 79.7187 26.974C79.672 26.862 79.5974 26.7407 79.4947 26.61C79.4014 26.4793 79.2614 26.3767 79.0747 26.302C78.888 26.218 78.6687 26.176 78.4167 26.176C78.09 26.176 77.8194 26.2647 77.6047 26.442C77.3994 26.6193 77.2967 26.8293 77.2967 27.072C77.2967 27.5013 77.5534 27.772 78.0667 27.884L79.1587 28.122C79.756 28.2527 80.2134 28.4953 80.5307 28.85C80.8574 29.1953 81.0207 29.62 81.0207 30.124C81.0207 30.656 80.8014 31.1367 80.3627 31.566C79.9334 31.9953 79.3314 32.21 78.5567 32.21C77.726 32.21 77.0774 32.0047 76.6107 31.594C76.144 31.174 75.878 30.726 75.8127 30.25ZM81.9888 30.25L83.1788 29.83C83.2254 30.194 83.3841 30.4973 83.6548 30.74C83.9254 30.9733 84.2894 31.09 84.7468 31.09C85.1014 31.09 85.3814 31.006 85.5868 30.838C85.7921 30.6607 85.8948 30.446 85.8948 30.194C85.8948 29.746 85.6054 29.4567 85.0268 29.326L83.8788 29.074C83.3561 28.962 82.9454 28.738 82.6468 28.402C82.3481 28.066 82.1988 27.66 82.1988 27.184C82.1988 26.6053 82.4321 26.106 82.8988 25.686C83.3748 25.266 83.9394 25.056 84.5928 25.056C85.0221 25.056 85.4048 25.1213 85.7408 25.252C86.0768 25.3733 86.3381 25.5367 86.5248 25.742C86.7114 25.9473 86.8514 26.1387 86.9448 26.316C87.0381 26.4933 87.1081 26.6753 87.1548 26.862L85.9928 27.296C85.9741 27.184 85.9414 27.0767 85.8948 26.974C85.8481 26.862 85.7734 26.7407 85.6708 26.61C85.5774 26.4793 85.4374 26.3767 85.2508 26.302C85.0641 26.218 84.8448 26.176 84.5928 26.176C84.2661 26.176 83.9954 26.2647 83.7808 26.442C83.5754 26.6193 83.4728 26.8293 83.4728 27.072C83.4728 27.5013 83.7294 27.772 84.2428 27.884L85.3348 28.122C85.9321 28.2527 86.3894 28.4953 86.7068 28.85C87.0334 29.1953 87.1968 29.62 87.1968 30.124C87.1968 30.656 86.9774 31.1367 86.5388 31.566C86.1094 31.9953 85.5074 32.21 84.7328 32.21C83.9021 32.21 83.2534 32.0047 82.7868 31.594C82.3201 31.174 82.0541 30.726 81.9888 30.25ZM92.5205 25.266H93.8785L95.6285 30.334L97.1125 25.266H98.4985L96.3145 32H94.9565L93.1645 26.876L91.4145 32H90.0285L87.8165 25.266H89.2585L90.7705 30.334L92.5205 25.266ZM100.923 30.404C101.334 30.824 101.833 31.034 102.421 31.034C103.009 31.034 103.504 30.824 103.905 30.404C104.316 29.9747 104.521 29.382 104.521 28.626C104.521 27.8793 104.316 27.296 103.905 26.876C103.504 26.4467 103.009 26.232 102.421 26.232C101.833 26.232 101.334 26.4467 100.923 26.876C100.522 27.296 100.321 27.8793 100.321 28.626C100.321 29.382 100.522 29.9747 100.923 30.404ZM99.9433 26.078C100.597 25.3967 101.423 25.056 102.421 25.056C103.42 25.056 104.241 25.3967 104.885 26.078C105.539 26.75 105.865 27.5993 105.865 28.626C105.865 29.662 105.543 30.5207 104.899 31.202C104.255 31.874 103.429 32.21 102.421 32.21C101.413 32.21 100.587 31.874 99.9433 31.202C99.2993 30.5207 98.9773 29.662 98.9773 28.626C98.9773 27.5993 99.2993 26.75 99.9433 26.078ZM111.133 25.196V26.596C110.937 26.568 110.746 26.554 110.559 26.554C109.327 26.554 108.711 27.2447 108.711 28.626V32H107.395V25.266H108.683V26.442C109.094 25.5833 109.766 25.154 110.699 25.154C110.848 25.154 110.993 25.168 111.133 25.196ZM113.097 28.612C113.097 29.3213 113.27 29.9 113.615 30.348C113.97 30.796 114.455 31.02 115.071 31.02C115.659 31.02 116.131 30.7913 116.485 30.334C116.84 29.8767 117.017 29.2933 117.017 28.584C117.017 27.884 116.845 27.3193 116.499 26.89C116.154 26.4607 115.683 26.246 115.085 26.246C114.488 26.246 114.007 26.4653 113.643 26.904C113.279 27.3427 113.097 27.912 113.097 28.612ZM117.031 31.09V30.978C116.854 31.3233 116.583 31.6127 116.219 31.846C115.865 32.07 115.44 32.182 114.945 32.182C113.984 32.182 113.209 31.846 112.621 31.174C112.043 30.4927 111.753 29.6387 111.753 28.612C111.753 27.632 112.052 26.8013 112.649 26.12C113.247 25.4293 114.012 25.084 114.945 25.084C115.496 25.084 115.944 25.196 116.289 25.42C116.635 25.6347 116.873 25.9007 117.003 26.218V21.864H118.305V30.754C118.305 31.2113 118.329 31.6267 118.375 32H117.101C117.055 31.7387 117.031 31.4353 117.031 31.09ZM125.052 28.038V32H123.736V21.864H125.052V26.05C125.5 25.3967 126.181 25.07 127.096 25.07C127.87 25.07 128.463 25.3173 128.874 25.812C129.294 26.3067 129.504 26.946 129.504 27.73V32H128.188V27.954C128.188 26.8247 127.665 26.26 126.62 26.26C126.134 26.26 125.756 26.428 125.486 26.764C125.215 27.0907 125.07 27.5153 125.052 28.038ZM132.297 27.94H135.979C135.96 27.436 135.792 27.0253 135.475 26.708C135.158 26.3813 134.71 26.218 134.131 26.218C133.608 26.218 133.179 26.3907 132.843 26.736C132.507 27.072 132.325 27.4733 132.297 27.94ZM136.175 29.69L137.309 30.082C137.113 30.7073 136.749 31.2207 136.217 31.622C135.685 32.014 135.041 32.21 134.285 32.21C133.342 32.21 132.54 31.888 131.877 31.244C131.224 30.5907 130.897 29.7133 130.897 28.612C130.897 27.5853 131.214 26.736 131.849 26.064C132.484 25.392 133.24 25.056 134.117 25.056C135.134 25.056 135.928 25.378 136.497 26.022C137.066 26.6567 137.351 27.5107 137.351 28.584C137.351 28.752 137.342 28.892 137.323 29.004H132.255C132.264 29.6013 132.46 30.0913 132.843 30.474C133.235 30.8567 133.716 31.048 134.285 31.048C135.246 31.048 135.876 30.5953 136.175 29.69ZM142.615 25.196V26.596C142.419 26.568 142.228 26.554 142.041 26.554C140.809 26.554 140.193 27.2447 140.193 28.626V32H138.877V25.266H140.165V26.442C140.576 25.5833 141.248 25.154 142.181 25.154C142.33 25.154 142.475 25.168 142.615 25.196ZM144.649 27.94H148.331C148.313 27.436 148.145 27.0253 147.827 26.708C147.51 26.3813 147.062 26.218 146.483 26.218C145.961 26.218 145.531 26.3907 145.195 26.736C144.859 27.072 144.677 27.4733 144.649 27.94ZM148.527 29.69L149.661 30.082C149.465 30.7073 149.101 31.2207 148.569 31.622C148.037 32.014 147.393 32.21 146.637 32.21C145.695 32.21 144.892 31.888 144.229 31.244C143.576 30.5907 143.249 29.7133 143.249 28.612C143.249 27.5853 143.567 26.736 144.201 26.064C144.836 25.392 145.592 25.056 146.469 25.056C147.487 25.056 148.28 25.378 148.849 26.022C149.419 26.6567 149.703 27.5107 149.703 28.584C149.703 28.752 149.694 28.892 149.675 29.004H144.607C144.617 29.6013 144.813 30.0913 145.195 30.474C145.587 30.8567 146.068 31.048 146.637 31.048C147.599 31.048 148.229 30.5953 148.527 29.69Z" fill="#B5B5B5"/>
<defs>
<linearGradient id="paint0_linear_345_378" x1="196" y1="0" x2="196" y2="53" gradientUnits="userSpaceOnUse">
<stop stop-color="white"/>
<stop offset="1" stop-color="white" stop-opacity="0"/>
</linearGradient>
</defs>
</svg>
