<svg width="392" height="53" viewBox="0 0 392 53" fill="none" xmlns="http://www.w3.org/2000/svg">
<rect width="392" height="53" rx="16" fill="#393953"/>
<rect x="0.5" y="0.5" width="391" height="52" rx="15.5" stroke="url(#paint0_linear_345_372)" stroke-opacity="0.5" style="mix-blend-mode:soft-light"/>
<path d="M31.294 32H25.26V22.074H31.294V23.348H26.632V26.4H30.86V27.688H26.632V30.726H31.294V32ZM34.2117 28.108V32H32.8957V25.266H34.1837V26.232C34.6317 25.4573 35.3224 25.07 36.2557 25.07C37.0304 25.07 37.623 25.3173 38.0337 25.812C38.4537 26.3067 38.6637 26.946 38.6637 27.73V32H37.3477V27.954C37.3477 26.8247 36.825 26.26 35.7797 26.26C35.285 26.26 34.8977 26.4373 34.6177 26.792C34.347 27.1373 34.2117 27.576 34.2117 28.108ZM42.367 23.138V25.266H43.823V26.456H42.367V29.956C42.367 30.2733 42.437 30.5067 42.577 30.656C42.7263 30.8053 42.969 30.88 43.305 30.88C43.501 30.88 43.6737 30.8613 43.823 30.824V31.944C43.599 32.028 43.3003 32.07 42.927 32.07C42.3483 32.07 41.891 31.902 41.555 31.566C41.219 31.23 41.051 30.7587 41.051 30.152V26.456H39.763V25.266H40.127C40.4723 25.266 40.729 25.1727 40.897 24.986C41.0743 24.79 41.163 24.538 41.163 24.23V23.138H42.367ZM46.2112 27.94H49.8932C49.8746 27.436 49.7066 27.0253 49.3892 26.708C49.0719 26.3813 48.6239 26.218 48.0452 26.218C47.5226 26.218 47.0932 26.3907 46.7572 26.736C46.4212 27.072 46.2392 27.4733 46.2112 27.94ZM50.0892 29.69L51.2232 30.082C51.0272 30.7073 50.6632 31.2207 50.1312 31.622C49.5992 32.014 48.9552 32.21 48.1992 32.21C47.2566 32.21 46.4539 31.888 45.7912 31.244C45.1379 30.5907 44.8112 29.7133 44.8112 28.612C44.8112 27.5853 45.1286 26.736 45.7632 26.064C46.3979 25.392 47.1539 25.056 48.0312 25.056C49.0486 25.056 49.8419 25.378 50.4112 26.022C50.9806 26.6567 51.2652 27.5107 51.2652 28.584C51.2652 28.752 51.2559 28.892 51.2372 29.004H46.1692C46.1786 29.6013 46.3746 30.0913 46.7572 30.474C47.1492 30.8567 47.6299 31.048 48.1992 31.048C49.1606 31.048 49.7906 30.5953 50.0892 29.69ZM56.5291 25.196V26.596C56.3331 26.568 56.1418 26.554 55.9551 26.554C54.7231 26.554 54.1071 27.2447 54.1071 28.626V32H52.7911V25.266H54.0791V26.442C54.4898 25.5833 55.1618 25.154 56.0951 25.154C56.2444 25.154 56.3891 25.168 56.5291 25.196ZM65.5617 31.188C65.3844 31.524 65.1137 31.7807 64.7497 31.958C64.3857 32.126 63.9937 32.21 63.5737 32.21C62.8084 32.21 62.1971 31.958 61.7397 31.454C61.2824 30.9407 61.0537 30.292 61.0537 29.508V25.266H62.3697V29.312C62.3697 29.816 62.4911 30.2313 62.7337 30.558C62.9857 30.8847 63.3731 31.048 63.8957 31.048C64.4184 31.048 64.8151 30.894 65.0857 30.586C65.3564 30.2687 65.4917 29.8487 65.4917 29.326V25.266H66.8077V30.754C66.8077 31.1927 66.8311 31.608 66.8777 32H65.6177C65.5804 31.7947 65.5617 31.524 65.5617 31.188ZM68.2694 30.25L69.4594 29.83C69.5061 30.194 69.6648 30.4973 69.9354 30.74C70.2061 30.9733 70.5701 31.09 71.0274 31.09C71.3821 31.09 71.6621 31.006 71.8674 30.838C72.0728 30.6607 72.1754 30.446 72.1754 30.194C72.1754 29.746 71.8861 29.4567 71.3074 29.326L70.1594 29.074C69.6368 28.962 69.2261 28.738 68.9274 28.402C68.6288 28.066 68.4794 27.66 68.4794 27.184C68.4794 26.6053 68.7128 26.106 69.1794 25.686C69.6554 25.266 70.2201 25.056 70.8734 25.056C71.3028 25.056 71.6854 25.1213 72.0214 25.252C72.3574 25.3733 72.6188 25.5367 72.8054 25.742C72.9921 25.9473 73.1321 26.1387 73.2254 26.316C73.3188 26.4933 73.3888 26.6753 73.4354 26.862L72.2734 27.296C72.2548 27.184 72.2221 27.0767 72.1754 26.974C72.1288 26.862 72.0541 26.7407 71.9514 26.61C71.8581 26.4793 71.7181 26.3767 71.5314 26.302C71.3448 26.218 71.1254 26.176 70.8734 26.176C70.5468 26.176 70.2761 26.2647 70.0614 26.442C69.8561 26.6193 69.7534 26.8293 69.7534 27.072C69.7534 27.5013 70.0101 27.772 70.5234 27.884L71.6154 28.122C72.2128 28.2527 72.6701 28.4953 72.9874 28.85C73.3141 29.1953 73.4774 29.62 73.4774 30.124C73.4774 30.656 73.2581 31.1367 72.8194 31.566C72.3901 31.9953 71.7881 32.21 71.0134 32.21C70.1828 32.21 69.5341 32.0047 69.0674 31.594C68.6008 31.174 68.3348 30.726 68.2694 30.25ZM75.8611 27.94H79.5431C79.5245 27.436 79.3565 27.0253 79.0391 26.708C78.7218 26.3813 78.2738 26.218 77.6951 26.218C77.1725 26.218 76.7431 26.3907 76.4071 26.736C76.0711 27.072 75.8891 27.4733 75.8611 27.94ZM79.7391 29.69L80.8731 30.082C80.6771 30.7073 80.3131 31.2207 79.7811 31.622C79.2491 32.014 78.6051 32.21 77.8491 32.21C76.9065 32.21 76.1038 31.888 75.4411 31.244C74.7878 30.5907 74.4611 29.7133 74.4611 28.612C74.4611 27.5853 74.7785 26.736 75.4131 26.064C76.0478 25.392 76.8038 25.056 77.6811 25.056C78.6985 25.056 79.4918 25.378 80.0611 26.022C80.6305 26.6567 80.9151 27.5107 80.9151 28.584C80.9151 28.752 80.9058 28.892 80.8871 29.004H75.8191C75.8285 29.6013 76.0245 30.0913 76.4071 30.474C76.7991 30.8567 77.2798 31.048 77.8491 31.048C78.8105 31.048 79.4405 30.5953 79.7391 29.69ZM86.179 25.196V26.596C85.983 26.568 85.7917 26.554 85.605 26.554C84.373 26.554 83.757 27.2447 83.757 28.626V32H82.441V25.266H83.729V26.442C84.1397 25.5833 84.8117 25.154 85.745 25.154C85.8944 25.154 86.039 25.168 86.179 25.196ZM88.7437 28.108V32H87.4277V25.266H88.7157V26.232C89.1637 25.4573 89.8543 25.07 90.7877 25.07C91.5623 25.07 92.155 25.3173 92.5657 25.812C92.9857 26.3067 93.1957 26.946 93.1957 27.73V32H91.8797V27.954C91.8797 26.8247 91.357 26.26 90.3117 26.26C89.817 26.26 89.4297 26.4373 89.1497 26.792C88.879 27.1373 88.7437 27.576 88.7437 28.108ZM94.715 30.194C94.715 29.6153 94.9017 29.1533 95.275 28.808C95.6483 28.4533 96.143 28.234 96.759 28.15L98.579 27.884C98.9243 27.8373 99.097 27.6693 99.097 27.38C99.097 27.0253 98.9757 26.736 98.733 26.512C98.4903 26.288 98.1263 26.176 97.641 26.176C97.193 26.176 96.8383 26.302 96.577 26.554C96.3157 26.7967 96.1617 27.1233 96.115 27.534L94.855 27.24C94.9203 26.596 95.2143 26.0733 95.737 25.672C96.2597 25.2613 96.885 25.056 97.613 25.056C98.565 25.056 99.2697 25.2893 99.727 25.756C100.184 26.2133 100.413 26.8013 100.413 27.52V30.894C100.413 31.2953 100.441 31.664 100.497 32H99.209C99.1623 31.72 99.139 31.4167 99.139 31.09C98.9523 31.3887 98.677 31.65 98.313 31.874C97.9583 32.098 97.5103 32.21 96.969 32.21C96.3063 32.21 95.765 32.014 95.345 31.622C94.925 31.2207 94.715 30.7447 94.715 30.194ZM97.151 31.104C97.739 31.104 98.2103 30.9453 98.565 30.628C98.9197 30.3107 99.097 29.8067 99.097 29.116V28.808L97.039 29.116C96.7403 29.1627 96.5023 29.27 96.325 29.438C96.1477 29.606 96.059 29.8347 96.059 30.124C96.059 30.3853 96.157 30.614 96.353 30.81C96.5583 31.006 96.8243 31.104 97.151 31.104ZM103.611 32H102.309V25.266H103.569V26.162C103.774 25.8073 104.064 25.5367 104.437 25.35C104.81 25.1633 105.202 25.07 105.613 25.07C106.052 25.07 106.453 25.1773 106.817 25.392C107.181 25.6067 107.452 25.924 107.629 26.344C108.096 25.4947 108.847 25.07 109.883 25.07C110.527 25.07 111.073 25.2893 111.521 25.728C111.978 26.1667 112.207 26.8013 112.207 27.632V32H110.905V27.772C110.905 27.3053 110.784 26.932 110.541 26.652C110.308 26.372 109.953 26.232 109.477 26.232C109.02 26.232 108.646 26.3953 108.357 26.722C108.068 27.0393 107.923 27.4407 107.923 27.926V32H106.607V27.772C106.607 27.3053 106.486 26.932 106.243 26.652C106.01 26.372 105.655 26.232 105.179 26.232C104.712 26.232 104.334 26.3907 104.045 26.708C103.756 27.0253 103.611 27.436 103.611 27.94V32ZM115.013 27.94H118.695C118.676 27.436 118.508 27.0253 118.191 26.708C117.874 26.3813 117.426 26.218 116.847 26.218C116.324 26.218 115.895 26.3907 115.559 26.736C115.223 27.072 115.041 27.4733 115.013 27.94ZM118.891 29.69L120.025 30.082C119.829 30.7073 119.465 31.2207 118.933 31.622C118.401 32.014 117.757 32.21 117.001 32.21C116.058 32.21 115.256 31.888 114.593 31.244C113.94 30.5907 113.613 29.7133 113.613 28.612C113.613 27.5853 113.93 26.736 114.565 26.064C115.2 25.392 115.956 25.056 116.833 25.056C117.85 25.056 118.644 25.378 119.213 26.022C119.782 26.6567 120.067 27.5107 120.067 28.584C120.067 28.752 120.058 28.892 120.039 29.004H114.971C114.98 29.6013 115.176 30.0913 115.559 30.474C115.951 30.8567 116.432 31.048 117.001 31.048C117.962 31.048 118.592 30.5953 118.891 29.69ZM126.255 28.038V32H124.939V21.864H126.255V26.05C126.703 25.3967 127.384 25.07 128.299 25.07C129.074 25.07 129.666 25.3173 130.077 25.812C130.497 26.3067 130.707 26.946 130.707 27.73V32H129.391V27.954C129.391 26.8247 128.868 26.26 127.823 26.26C127.338 26.26 126.96 26.428 126.689 26.764C126.418 27.0907 126.274 27.5153 126.255 28.038ZM133.5 27.94H137.182C137.164 27.436 136.996 27.0253 136.678 26.708C136.361 26.3813 135.913 26.218 135.334 26.218C134.812 26.218 134.382 26.3907 134.046 26.736C133.71 27.072 133.528 27.4733 133.5 27.94ZM137.378 29.69L138.512 30.082C138.316 30.7073 137.952 31.2207 137.42 31.622C136.888 32.014 136.244 32.21 135.488 32.21C134.546 32.21 133.743 31.888 133.08 31.244C132.427 30.5907 132.1 29.7133 132.1 28.612C132.1 27.5853 132.418 26.736 133.052 26.064C133.687 25.392 134.443 25.056 135.32 25.056C136.338 25.056 137.131 25.378 137.7 26.022C138.27 26.6567 138.554 27.5107 138.554 28.584C138.554 28.752 138.545 28.892 138.526 29.004H133.458C133.468 29.6013 133.664 30.0913 134.046 30.474C134.438 30.8567 134.919 31.048 135.488 31.048C136.45 31.048 137.08 30.5953 137.378 29.69ZM143.818 25.196V26.596C143.622 26.568 143.431 26.554 143.244 26.554C142.012 26.554 141.396 27.2447 141.396 28.626V32H140.08V25.266H141.368V26.442C141.779 25.5833 142.451 25.154 143.384 25.154C143.533 25.154 143.678 25.168 143.818 25.196ZM145.852 27.94H149.534C149.516 27.436 149.348 27.0253 149.03 26.708C148.713 26.3813 148.265 26.218 147.686 26.218C147.164 26.218 146.734 26.3907 146.398 26.736C146.062 27.072 145.88 27.4733 145.852 27.94ZM149.73 29.69L150.864 30.082C150.668 30.7073 150.304 31.2207 149.772 31.622C149.24 32.014 148.596 32.21 147.84 32.21C146.898 32.21 146.095 31.888 145.432 31.244C144.779 30.5907 144.452 29.7133 144.452 28.612C144.452 27.5853 144.77 26.736 145.404 26.064C146.039 25.392 146.795 25.056 147.672 25.056C148.69 25.056 149.483 25.378 150.052 26.022C150.622 26.6567 150.906 27.5107 150.906 28.584C150.906 28.752 150.897 28.892 150.878 29.004H145.81C145.82 29.6013 146.016 30.0913 146.398 30.474C146.79 30.8567 147.271 31.048 147.84 31.048C148.802 31.048 149.432 30.5953 149.73 29.69Z" fill="#B5B5B5"/>
<defs>
<linearGradient id="paint0_linear_345_372" x1="196" y1="0" x2="196" y2="53" gradientUnits="userSpaceOnUse">
<stop stop-color="white"/>
<stop offset="1" stop-color="white" stop-opacity="0"/>
</linearGradient>
</defs>
</svg>
