<svg width="23" height="59" viewBox="0 0 23 59" fill="none" xmlns="http://www.w3.org/2000/svg">
<path fill-rule="evenodd" clip-rule="evenodd" d="M21.8439 0.283314C21.7468 0.567847 21.4365 0.58968 21.4333 0.312195C21.4313 0.142608 21.4083 0.13741 21.2908 0.279964C21.1051 0.505002 21.1873 0.551096 21.8006 0.566692C22.2409 0.577897 22.2954 0.551442 22.1779 0.383126C22.0851 0.250159 22.1012 0.167677 22.2278 0.128515C22.3451 0.0921251 22.3231 0.0670565 22.1689 0.0613959C22.0334 0.0564285 21.8873 0.15624 21.8439 0.283314ZM22.7601 0.363372C22.6627 0.648712 22.8551 0.972522 22.9757 0.726228C23.0173 0.641434 23.0042 0.470923 22.9468 0.347314C22.8457 0.129785 22.8395 0.130363 22.7601 0.363372ZM20.5434 0.697232C20.5507 0.831816 20.5864 0.859195 20.6344 0.767123C20.678 0.683716 20.6726 0.58402 20.6225 0.545667C20.5725 0.507313 20.537 0.575471 20.5434 0.697232ZM19.8159 1.06205C19.4232 1.26318 19.3693 1.61321 19.7152 1.71499C20.0795 1.82219 20.1329 1.80024 19.9402 1.62222C19.8011 1.49376 19.8269 1.42549 20.0624 1.29899C20.4912 1.06875 20.2518 0.838747 19.8159 1.06205ZM18.4222 1.88711C18.4222 1.94326 18.2697 2.02424 18.0832 2.06721C17.7549 2.14265 17.7537 2.14808 18.0455 2.23819C18.2577 2.30369 18.3619 2.28209 18.3976 2.16518C18.4275 2.06802 18.5457 2.02782 18.6827 2.06802C18.8771 2.12532 18.8846 2.10718 18.7264 1.96105C18.5099 1.76096 18.4222 1.73971 18.4222 1.88711ZM16.6119 2.47986C16.347 2.66955 16.0697 2.82481 15.9955 2.82481C15.9214 2.82481 15.8608 2.8768 15.8608 2.94033C15.8608 3.00387 15.7719 3.05586 15.6633 3.05586C15.363 3.05586 14.7756 3.5213 14.8609 3.69169C14.9029 3.77579 14.8021 3.86856 14.6315 3.90275C14.4036 3.9485 14.3519 4.02359 14.4259 4.2023C14.5036 4.39003 14.4726 4.42538 14.2797 4.36865C14.0144 4.29056 13.4034 4.71072 12.913 5.30855C12.7566 5.49916 12.5476 5.69439 12.4485 5.74245C12.3494 5.7905 12.2237 5.98539 12.1693 6.17566C12.1148 6.36592 12.0078 6.52153 11.9316 6.52153C11.8552 6.52153 11.7928 6.59951 11.7928 6.69482C11.7928 6.79012 11.725 6.8681 11.6421 6.8681C11.5593 6.8681 11.4915 6.94608 11.4915 7.04138C11.4915 7.13669 11.3898 7.21467 11.2655 7.21467C11.1035 7.21467 11.0395 7.34151 11.0395 7.66266C11.0395 7.91982 10.9432 8.17177 10.8135 8.25437C10.6892 8.3335 10.5875 8.49581 10.5875 8.61503C10.5875 8.73437 10.5197 8.83198 10.4368 8.83198C10.3539 8.83198 10.2861 8.93907 10.2861 9.06985C10.2861 9.20062 10.2254 9.27894 10.1513 9.24382C9.97182 9.1588 9.80353 9.50975 9.94229 9.67992C10.1496 9.93453 10.13 10.2059 9.89122 10.389C9.72729 10.5148 9.5947 10.5366 9.47161 10.4583C9.33826 10.3734 9.29171 10.445 9.29171 10.7354C9.29171 10.9508 9.35891 11.1175 9.44102 11.1058C9.52298 11.0941 9.6161 11.1756 9.64789 11.2868C9.67953 11.3981 9.63282 11.489 9.54378 11.489C9.45488 11.489 9.38211 11.4248 9.38211 11.3463C9.38211 11.2678 9.24651 11.3976 9.08077 11.6347C8.91504 11.8718 8.77944 12.1179 8.77944 12.1817C8.77944 12.2454 8.64384 12.4016 8.4781 12.5287C8.15371 12.7774 8.06904 13.2218 8.34581 13.2218C8.46092 13.2218 8.46695 13.2679 8.3645 13.3662C8.27877 13.4485 8.26626 13.6101 8.33542 13.7417C8.49392 14.0431 8.50688 14.265 8.3651 14.2479C7.96523 14.1995 7.84861 14.2796 7.93494 14.5433C7.98572 14.6982 7.9589 14.8574 7.87543 14.8969C7.79196 14.9364 7.76514 15.0956 7.81592 15.2505C7.88673 15.4671 7.84831 15.5323 7.64958 15.5323C7.48701 15.5323 7.42192 15.5937 7.4742 15.6981C7.51985 15.7893 7.48203 15.8831 7.39028 15.9066C7.29867 15.93 7.21083 16.1803 7.19531 16.4627C7.17979 16.7453 7.11847 17.0932 7.05911 17.2362C6.98453 17.4159 7.0124 17.4968 7.14966 17.4979C7.30515 17.4993 7.30259 17.5218 7.13776 17.6018C7.0127 17.6625 6.96841 17.7857 7.02837 17.9056C7.08924 18.0269 7.02566 18.1951 6.86867 18.3281C6.6627 18.5025 6.64387 18.5927 6.77902 18.7586C6.90724 18.9159 6.90558 19.0028 6.77224 19.1064C6.63573 19.2127 6.66225 19.2827 6.8872 19.41C7.05067 19.5026 7.09557 19.5756 6.9889 19.5756C6.78037 19.5756 6.81518 20.1518 7.1245 21.813C7.30846 22.8007 7.49334 23.2723 7.69659 23.2723C7.92123 23.2723 7.87739 24.0515 7.6443 24.1997C7.52287 24.277 7.42342 24.4795 7.42342 24.6496C7.42342 24.8197 7.35909 25.0084 7.28044 25.0687C7.20179 25.1291 7.10958 25.3723 7.07553 25.6092C7.00502 26.1002 6.73894 26.4045 6.45358 26.3205C6.31873 26.2807 6.22817 26.4333 6.15826 26.8183C6.10282 27.1236 5.96526 27.4667 5.85241 27.5808C5.61134 27.8248 5.71033 28.2398 6.00971 28.2398C6.12421 28.2398 6.21808 28.2918 6.21808 28.3553C6.21808 28.4188 6.11156 28.4708 5.98123 28.4708C5.828 28.4708 5.75417 28.5625 5.77195 28.7307C5.82303 29.2143 5.76864 29.2795 5.31407 29.2795C5.01274 29.2795 4.86207 29.3372 4.86207 29.4528C4.86207 29.5481 4.92987 29.626 5.01274 29.626C5.0956 29.626 5.1634 29.756 5.1634 29.9148C5.1634 30.0737 5.0956 30.2037 5.01274 30.2037C4.92987 30.2037 4.86207 30.1413 4.86207 30.065C4.86207 29.9587 4.82063 29.9582 4.68488 30.0623C4.58755 30.1369 4.486 30.6022 4.45933 31.0962C4.43282 31.5902 4.38204 32.0982 4.34663 32.2253C4.31138 32.3524 4.27733 32.4953 4.271 32.543C4.26452 32.5907 4.15363 32.6296 4.0245 32.6296C3.89538 32.6296 3.82698 32.6761 3.87278 32.7329C3.91858 32.7896 3.84852 33.0625 3.71714 33.3394C3.3355 34.1436 3.4259 34.9401 3.89885 34.9401C4.02224 34.9401 4.10873 35.0591 4.10873 35.2289C4.10873 35.4086 4.0233 35.5177 3.88273 35.5177C3.66426 35.5177 3.59284 35.7025 3.64889 36.1242C3.66365 36.2353 3.61228 36.3264 3.53483 36.3264C3.45724 36.3264 3.34996 36.5369 3.29633 36.7943C3.22265 37.1474 3.25926 37.3089 3.44488 37.4512C3.67285 37.6259 3.66923 37.6462 3.39788 37.7231C3.15409 37.7923 3.11146 37.9003 3.14566 38.3637C3.16826 38.6702 3.26137 38.94 3.35268 38.9634C3.47155 38.9938 3.46929 39.0515 3.34454 39.1666C3.24887 39.2551 3.10995 39.2986 3.03597 39.2636C2.96184 39.2285 2.85788 39.2863 2.805 39.3921C2.75211 39.4978 2.78255 39.6192 2.87265 39.6619C3.12004 39.7792 3.09142 41.2795 2.83136 41.8389C2.79536 41.9163 2.83076 42.0103 2.91001 42.0478C3.11417 42.1446 3.08886 42.7227 2.87325 42.888C2.73268 42.9958 2.73268 43.0575 2.87325 43.1653C2.97269 43.2415 3.05405 43.4269 3.05405 43.5772C3.05405 43.7275 3.11748 43.9415 3.19508 44.0526C3.27689 44.1698 3.28367 44.4334 3.2112 44.6796C3.14008 44.9216 3.14325 45.0774 3.21858 45.0417C3.29135 45.0073 3.30748 45.1453 3.25444 45.3487C3.18845 45.6018 3.22491 45.7584 3.37015 45.8454C3.57431 45.9677 3.66983 46.7086 3.66772 48.1533C3.66727 48.4633 3.73266 48.8112 3.81312 48.9265C3.9109 49.0666 3.90246 49.232 3.78765 49.4252C3.66772 49.6269 3.66034 49.8487 3.7631 50.1591C3.877 50.5032 3.86043 50.6615 3.68987 50.8585C3.49295 51.086 3.49551 51.1132 3.71368 51.1132C3.84807 51.1132 3.96846 51.1783 3.98096 51.2576C4.04891 51.6845 4.04048 51.7605 3.91135 51.893C3.81975 51.9869 3.82969 52.0374 3.93968 52.0374C4.03264 52.0374 4.10873 52.1674 4.10873 52.3262C4.10873 52.4851 4.04258 52.615 3.96183 52.615C3.86871 52.615 3.86555 52.7172 3.95294 52.8936C4.02887 53.0467 4.09246 53.5275 4.09426 53.9621C4.09954 55.223 4.12033 55.3876 4.27416 55.3876C4.35417 55.3876 4.40359 55.5696 4.384 55.7921C4.35341 56.1407 4.30565 56.1871 4.04017 56.1266C3.87067 56.088 3.39305 55.8053 2.97872 55.4984C2.56438 55.1914 2.03252 54.9041 1.79673 54.8599C1.51859 54.8076 1.43256 54.7488 1.55189 54.6922C1.68071 54.6312 1.53939 54.4369 1.08015 54.0434C0.719601 53.7343 0.41043 53.4632 0.393253 53.4409C0.375927 53.4186 0.263077 53.4706 0.142392 53.5564C-0.0408202 53.6868 -0.0450388 53.7601 0.11708 54.0015C0.223904 54.1606 0.453672 54.3896 0.627995 54.5104C0.802167 54.6314 0.944699 54.8001 0.944699 54.8856C0.944699 54.9711 1.0464 55.041 1.1707 55.041C1.295 55.041 1.3967 55.1074 1.3967 55.1885C1.3967 55.2697 1.60011 55.5068 1.84871 55.7155C2.09731 55.9242 2.30071 56.123 2.30071 56.1572C2.30071 56.2698 3.32194 57.0049 3.47848 57.0049C3.56271 57.0049 3.65868 56.9425 3.69198 56.8661C3.73884 56.7582 3.77696 56.7582 3.86404 56.8661C3.92552 56.9425 3.90081 57.0049 3.8092 57.0049C3.71759 57.0049 3.8654 57.2259 4.13781 57.4959C4.41006 57.7658 4.6543 58.0113 4.68036 58.0412C4.70643 58.0712 4.78342 58.0267 4.85137 57.9422C4.938 57.8349 5.00596 57.8273 5.07813 57.9167C5.31483 58.2105 5.84322 58.042 6.25575 57.5413C6.48371 57.2647 6.67008 56.9807 6.67008 56.9102C6.67008 56.8397 6.81247 56.7236 6.98649 56.6522C7.21279 56.5593 7.283 56.443 7.23328 56.2437C7.18251 56.0398 7.23087 55.9652 7.41423 55.9652C7.71858 55.9652 8.01676 55.7538 7.96372 55.5756C7.94233 55.504 7.95604 55.4906 7.99416 55.5461C8.03227 55.6015 8.24155 55.5144 8.45912 55.3526C8.91911 55.0105 9.79238 54.3992 10.3361 54.0385C10.5959 53.8663 10.6898 53.7113 10.634 53.5475C10.5667 53.3504 10.622 53.3082 10.9465 53.3082C11.2799 53.3082 11.3408 53.2571 11.3408 52.9777C11.3408 52.6928 11.3899 52.6543 11.6953 52.699C11.9337 52.734 12.1877 52.653 12.4707 52.4519C12.7021 52.2875 12.9364 52.1529 12.9912 52.1529C13.0461 52.1529 13.0772 51.9319 13.0604 51.662C13.0016 50.7153 12.7061 50.4258 12.3308 50.9469C12.1018 51.2649 11.8948 51.3542 11.759 51.1938C11.6718 51.0906 11.6054 51.0993 11.4973 51.2282C11.3721 51.3778 11.3256 51.3725 11.1505 51.1889C10.9668 50.9963 10.9299 50.9938 10.7494 51.1606C10.64 51.2616 10.4862 51.3443 10.4076 51.3443C10.3289 51.3443 10.1629 51.4223 10.0386 51.5176C9.90342 51.6212 9.88097 51.6908 9.98297 51.6908C10.0765 51.6908 10.1113 51.7428 10.0601 51.8064C10.0089 51.8699 9.83547 51.9219 9.67455 51.9219C9.50204 51.9219 9.38211 52.0009 9.38211 52.1145C9.38211 52.2203 9.33721 52.2725 9.28237 52.2305C9.10081 52.0914 7.42342 53.1734 7.42342 53.4297C7.42342 53.4899 7.15373 53.746 6.82422 53.9986C6.03547 54.6034 5.75402 54.53 5.78777 53.7285C5.83162 52.6853 5.73172 51.0594 5.61646 50.94C5.55514 50.8764 5.45856 50.3326 5.40176 49.7316C5.34496 49.1305 5.23482 48.5799 5.15693 48.508C5.07903 48.436 5.05432 48.3473 5.10208 48.3107C5.24477 48.2013 5.27791 47.0664 5.1402 47.0012C5.07014 46.9679 5.00791 46.7489 5.00219 46.5144C4.99631 46.2799 4.9371 45.984 4.87035 45.857C4.80376 45.7299 4.80707 45.5404 4.87789 45.4359C4.96287 45.3103 4.93198 45.1985 4.78673 45.1061C4.63637 45.0104 4.60985 44.9049 4.70281 44.7717C4.87503 44.525 4.83178 41.987 4.65535 41.987C4.58303 41.987 4.61015 41.9072 4.71562 41.8097C4.86312 41.6735 4.86764 41.5733 4.7349 41.3765C4.63998 41.2357 4.56736 40.8866 4.57369 40.6007C4.57987 40.3148 4.55019 39.928 4.50755 39.7411C4.46506 39.5542 4.50423 39.2954 4.59463 39.1659C4.68503 39.0364 4.7792 38.7993 4.80376 38.6392C4.82847 38.479 4.88226 38.1422 4.92324 37.8909C4.99722 37.4372 4.80029 37.0793 4.54371 37.2009C4.47018 37.2356 4.41006 37.2147 4.41006 37.1542C4.41006 37.0936 4.50333 37.0168 4.61723 36.9833C4.73114 36.9497 4.87276 36.6741 4.93213 36.3706C5.02102 35.9165 4.9936 35.7926 4.77724 35.6715C4.54401 35.5406 4.54114 35.5162 4.75193 35.4542C5.2535 35.3066 5.49593 34.6379 5.38293 33.7135C5.3204 33.2023 5.18646 32.7792 5.05507 32.6785C4.93273 32.5848 4.87111 32.4315 4.91797 32.3378C5.05929 32.0556 5.31287 32.1461 5.33155 32.4852C5.34345 32.7007 5.37208 32.7343 5.42075 32.5897C5.46007 32.4724 5.60019 32.2799 5.73203 32.1619C5.98831 31.9324 6.04406 31.7593 6.16731 30.8101C6.2217 30.3901 6.3121 30.2037 6.46096 30.2037C6.6951 30.2037 6.60967 29.6966 6.32957 29.4239C6.22381 29.3209 6.25138 29.2795 6.4257 29.2795C6.5601 29.2795 6.67008 29.2015 6.67008 29.1062C6.67008 29.0109 6.7647 28.9329 6.88027 28.9329C7.04314 28.9329 7.06318 28.8407 6.96961 28.5226C6.88328 28.2289 6.8985 28.1249 7.02325 28.1572C7.20692 28.2045 7.57409 27.6531 7.57409 27.33C7.57409 27.2255 7.74359 26.9998 7.95076 26.8284C8.15793 26.6572 8.32743 26.3913 8.32743 26.2377C8.32743 25.7166 8.51486 25.2362 8.71826 25.2362C8.83187 25.2362 8.88445 25.3086 8.8379 25.4014C8.71887 25.6394 9.1876 26.3339 9.57722 26.497C9.75998 26.5734 10.0756 26.8408 10.2787 27.0912C10.4818 27.3417 10.7362 27.5466 10.8437 27.5466C10.9513 27.5466 11.0395 27.6186 11.0395 27.7066C11.0395 27.9685 11.7722 28.2688 12.207 28.1851C12.4529 28.1378 12.6382 28.1657 12.7179 28.2619C12.8116 28.3754 12.8434 28.3626 12.8452 28.2109C12.8491 27.8581 13.5143 27.9108 14.0611 28.3072C14.492 28.6197 15.5051 28.7141 15.3621 28.4285C15.3091 28.3226 15.4775 28.2259 15.8733 28.135C16.4499 28.0026 16.5435 27.8899 16.4876 27.3955C16.4727 27.2643 16.5287 27.2174 16.6381 27.2691C16.7573 27.3256 16.7855 27.2731 16.7273 27.1026C16.6806 26.9656 16.6946 26.8535 16.7585 26.8535C16.8834 26.8535 17.3675 25.9552 17.3675 25.7233C17.3675 25.6459 17.2658 25.5828 17.1415 25.5828C16.8351 25.5828 16.856 25.3531 17.1792 25.1701C17.3904 25.0504 17.4055 24.9916 17.2545 24.8743C17.151 24.7937 17.0662 24.6083 17.0662 24.4622C17.0662 24.316 16.9978 24.1965 16.9143 24.1965C16.8221 24.1965 16.8332 24.1094 16.9428 23.9748C17.0841 23.8014 17.0823 23.7151 16.9345 23.5787C16.8305 23.4827 16.7171 23.2318 16.6824 23.0212C16.6476 22.8106 16.5503 22.6206 16.4661 22.599C16.3817 22.5775 16.3128 22.4889 16.3128 22.4022C16.3128 22.3153 16.0587 22.1017 15.7478 21.9274C15.4372 21.7531 15.0954 21.5298 14.9886 21.4311C14.8167 21.2725 14.7759 21.2718 14.6353 21.4245C14.5018 21.5696 14.4898 21.5652 14.5603 21.3968C14.6505 21.1815 14.183 20.9073 13.9731 21.0525C13.9076 21.0979 13.9097 21.0613 13.9781 20.9711C14.0697 20.85 14.0385 20.8258 13.8592 20.8786C13.6885 20.9288 13.641 20.9003 13.7 20.7827C13.8107 20.5613 13.3552 20.5643 12.7944 20.7886C12.5543 20.8846 12.2055 20.9297 12.0034 20.8908C11.7087 20.8341 11.6421 20.8656 11.6421 21.062C11.6421 21.2713 11.5927 21.2883 11.2638 21.1924C10.9393 21.0978 10.827 21.1326 10.4728 21.4379C10.2459 21.6336 9.87359 21.8678 9.64578 21.9583C9.36328 22.0706 9.23144 22.214 9.23144 22.4089C9.23144 22.7509 8.93462 22.7908 8.82313 22.4636C8.77974 22.3366 8.68436 22.2326 8.61114 22.2326C8.53792 22.2326 8.48307 21.9857 8.48925 21.6839C8.50658 20.8245 8.28042 20.0377 8.016 20.0377C7.79633 20.0377 7.85117 19.6732 8.09224 19.5305C8.24185 19.442 8.33888 19.0448 8.40563 18.2478C8.45866 17.6129 8.57046 17.0303 8.65378 16.9532C8.7371 16.8762 8.75985 16.7566 8.7041 16.6875C8.64836 16.6184 8.68482 16.4862 8.78486 16.3936C8.91308 16.2752 8.917 16.2254 8.79782 16.2254C8.55539 16.2254 8.58929 15.9256 8.85477 15.7221C9.16228 15.4862 9.14179 15.4288 8.7041 15.3012C8.49693 15.2408 8.33286 15.1252 8.33933 15.0442C8.34868 14.9283 8.36736 14.9278 8.42718 15.0413C8.59984 15.3693 9.23144 15.0297 9.23144 14.6088C9.23144 14.4729 9.31205 14.2484 9.41058 14.1095C9.50897 13.9708 9.60359 13.7792 9.62077 13.6839C9.63779 13.5886 9.73317 13.2247 9.83261 12.8753C9.9319 12.5258 10.0422 12.058 10.0776 11.8356C10.1727 11.2397 10.2441 11.1424 10.5875 11.1424C10.7585 11.1424 10.9355 11.0515 10.9811 10.9403C11.0267 10.829 11.1395 10.6081 11.2317 10.4493C11.3239 10.2905 11.4109 10.0705 11.4247 9.96041C11.4387 9.85032 11.5398 9.67749 11.6494 9.57618C11.8157 9.42253 11.8128 9.37459 11.6325 9.28703C11.4548 9.20085 11.4633 9.18179 11.6798 9.18028C11.8249 9.17936 11.9531 9.08763 11.9649 8.97639C11.9847 8.78774 12.0037 8.62716 12.0684 8.10315C12.0825 7.98821 12.1558 7.9234 12.2312 7.9591C12.3066 7.99479 12.4779 7.99179 12.6117 7.95239C12.7916 7.89949 12.813 7.84184 12.6935 7.7314C12.574 7.62108 12.6026 7.54148 12.8026 7.42711C13.1173 7.2469 14.0528 6.22117 14.0528 6.05609C14.0528 5.9944 14.1545 5.94392 14.2788 5.94392C14.5515 5.94392 14.5823 5.63466 14.3165 5.56466C14.213 5.53728 14.2476 5.52885 14.3938 5.54571C14.7548 5.58753 15.0605 5.15848 14.7373 5.06341C14.3941 4.96244 14.4545 4.75161 14.8063 4.82219C14.9722 4.85547 15.07 4.83548 15.0234 4.77795C14.977 4.7203 15.0737 4.67317 15.2386 4.67317C15.5895 4.67317 16.0528 4.35583 15.928 4.20092C15.8806 4.14211 15.9402 4.06494 16.0606 4.02948C16.181 3.99413 16.2628 3.87745 16.2425 3.77036C16.2221 3.66327 16.2345 3.64075 16.2702 3.72011C16.3784 3.96144 16.661 3.87456 17.2753 3.41155C17.8293 2.99393 17.9205 2.64252 17.438 2.78449C17.1335 2.87402 17.1581 2.6305 17.467 2.49788C17.6919 2.40142 17.6857 2.37785 17.4053 2.26268C17.1426 2.1549 17.0181 2.18897 16.6119 2.47986ZM15.368 21.9558C15.318 21.9942 15.188 21.9983 15.0793 21.9649C14.9591 21.9281 14.9948 21.9007 15.1703 21.8952C15.3291 21.8902 15.418 21.9175 15.368 21.9558ZM14.2571 22.5454C14.3281 22.6403 14.5145 22.8022 14.6715 22.9053C14.8285 23.0083 14.9568 23.1553 14.9568 23.232C14.9568 23.3086 15.0454 23.44 15.1536 23.524C15.3175 23.6512 15.5108 23.9213 15.6348 24.1965C15.6491 24.2283 15.7135 24.3459 15.7777 24.4579C15.842 24.5699 15.8312 24.7258 15.7537 24.8045C15.5539 25.0071 15.5441 25.4871 15.7362 25.6645C15.8566 25.7759 15.8087 25.9156 15.5514 26.2036C15.1147 26.6922 14.4712 26.9531 13.6008 26.9946C12.9773 27.0242 12.9095 27.0582 12.7581 27.4174C12.6304 27.7207 12.5714 27.7637 12.4945 27.6101C12.4401 27.5012 12.3955 27.3125 12.3955 27.1906C12.3955 27.0687 12.3108 26.9673 12.2071 26.9652C11.9442 26.9598 11.2769 26.5173 11.3952 26.4268C11.5059 26.3419 11.0615 25.9293 10.8591 25.9293C10.611 25.9293 10.1814 25.5274 10.0072 25.1323C9.79404 24.6486 9.78319 24.1965 9.98478 24.1965C10.0676 24.1965 10.1354 24.0909 10.1354 23.9619C10.1354 23.8327 10.2371 23.6972 10.3615 23.6607C10.4858 23.6241 10.5875 23.5332 10.5875 23.4585C10.5875 23.384 10.7909 23.2641 11.0395 23.1921C11.3428 23.1043 11.4915 22.982 11.4915 22.8203C11.4915 22.6429 11.5868 22.5792 11.852 22.5792C12.0503 22.5792 12.2504 22.5036 12.2966 22.4112C12.4111 22.1825 14.0707 22.296 14.2571 22.5454ZM14.1557 27.9149C14.1077 28.007 14.072 27.9796 14.0647 27.845C14.0582 27.7233 14.0938 27.6551 14.1438 27.6935C14.1938 27.7318 14.1993 27.8315 14.1557 27.9149ZM4.98185 33.8426C5.01259 33.993 4.98516 34.0253 4.90365 33.935C4.83465 33.8588 4.6106 33.7426 4.40585 33.677C4.03957 33.5595 4.04078 33.5579 4.48404 33.5845C4.80346 33.6037 4.94855 33.6789 4.98185 33.8426Z" fill="white"/>
</svg>
