<svg width="24" height="58" viewBox="0 0 24 58" fill="none" xmlns="http://www.w3.org/2000/svg">
<path fill-rule="evenodd" clip-rule="evenodd" d="M22.2643 0.222096C22.1672 0.506628 21.8569 0.528462 21.8537 0.250977C21.8517 0.0813897 21.8287 0.0761913 21.7112 0.218746C21.5255 0.443784 21.6077 0.489878 22.221 0.505473C22.6613 0.516679 22.7158 0.490224 22.5983 0.321908C22.5055 0.188941 22.5216 0.106459 22.6482 0.0672964C22.7655 0.0309068 22.7435 0.00583828 22.5893 0.000177674C22.4538 -0.0047898 22.3077 0.0950214 22.2643 0.222096ZM23.1805 0.302153C23.0832 0.587494 23.2756 0.911304 23.3961 0.66501C23.4377 0.580216 23.4246 0.409705 23.3672 0.286096C23.2661 0.0685668 23.2599 0.0691445 23.1805 0.302153ZM20.9639 0.636014C20.9711 0.770597 21.0068 0.797977 21.0549 0.705905C21.0984 0.622498 21.093 0.522802 21.043 0.484448C20.9929 0.446095 20.9574 0.514253 20.9639 0.636014ZM20.2363 1.00083C19.8436 1.20196 19.7897 1.55199 20.1356 1.65377C20.4999 1.76097 20.5533 1.73902 20.3606 1.561C20.2215 1.43254 20.2473 1.36427 20.4828 1.23777C20.9116 1.00753 20.6722 0.777528 20.2363 1.00083ZM18.8426 1.8259C18.8426 1.88204 18.6901 1.96302 18.5036 2.006C18.1753 2.08143 18.1741 2.08686 18.4659 2.17697C18.6781 2.24247 18.7823 2.22087 18.818 2.10396C18.8479 2.0068 18.9661 1.9666 19.1031 2.0068C19.2975 2.0641 19.305 2.04597 19.1468 1.89983C18.9303 1.69975 18.8426 1.67849 18.8426 1.8259ZM17.0323 2.41864C16.7675 2.60833 16.4901 2.76359 16.4159 2.76359C16.3418 2.76359 16.2812 2.81558 16.2812 2.87911C16.2812 2.94265 16.1923 2.99464 16.0837 2.99464C15.7834 2.99464 15.196 3.46008 15.2813 3.63047C15.3233 3.71457 15.2225 3.80734 15.0519 3.84153C14.824 3.88728 14.7723 3.96237 14.8463 4.14108C14.924 4.32881 14.893 4.36416 14.7001 4.30744C14.4348 4.22934 13.8238 4.6495 13.3334 5.24733C13.177 5.43794 12.9681 5.63317 12.8689 5.68123C12.7698 5.72929 12.6441 5.92417 12.5897 6.11444C12.5352 6.3047 12.4282 6.46031 12.352 6.46031C12.2756 6.46031 12.2132 6.53829 12.2132 6.6336C12.2132 6.7289 12.1454 6.80688 12.0625 6.80688C11.9797 6.80688 11.9119 6.88486 11.9119 6.98017C11.9119 7.07547 11.8102 7.15345 11.6859 7.15345C11.5239 7.15345 11.4599 7.28029 11.4599 7.60145C11.4599 7.8586 11.3636 8.11055 11.2339 8.19315C11.1096 8.27229 11.0079 8.43459 11.0079 8.55381C11.0079 8.67315 10.9401 8.77077 10.8572 8.77077C10.7743 8.77077 10.7065 8.87786 10.7065 9.00863C10.7065 9.1394 10.6458 9.21772 10.5717 9.1826C10.3922 9.09758 10.2239 9.44854 10.3627 9.6187C10.57 9.87331 10.5504 10.1447 10.3116 10.3278C10.1477 10.4536 10.0151 10.4754 9.89202 10.3971C9.75867 10.3122 9.71212 10.3838 9.71212 10.6742C9.71212 10.8896 9.77932 11.0563 9.86143 11.0446C9.9434 11.0329 10.0365 11.1144 10.0683 11.2256C10.0999 11.3369 10.0532 11.4278 9.96419 11.4278C9.87529 11.4278 9.80252 11.3636 9.80252 11.2851C9.80252 11.2066 9.66692 11.3364 9.50118 11.5735C9.33545 11.8106 9.19985 12.0567 9.19985 12.1205C9.19985 12.1842 9.06425 12.3404 8.89851 12.4675C8.57412 12.7162 8.48945 13.1606 8.76622 13.1606C8.88133 13.1606 8.88736 13.2067 8.78491 13.305C8.69918 13.3873 8.68667 13.5489 8.75583 13.6805C8.91433 13.9819 8.92729 14.2038 8.78551 14.1867C8.38564 14.1383 8.26902 14.2183 8.35535 14.4821C8.40613 14.637 8.37931 14.7962 8.29584 14.8357C8.21237 14.8752 8.18555 15.0344 8.23633 15.1893C8.30714 15.4059 8.26872 15.4711 8.06999 15.4711C7.90742 15.4711 7.84233 15.5325 7.89461 15.6368C7.94026 15.7281 7.90244 15.8219 7.81069 15.8454C7.71908 15.8688 7.63124 16.119 7.61572 16.4015C7.6002 16.6841 7.53888 17.032 7.47952 17.175C7.40494 17.3547 7.43281 17.4355 7.57007 17.4367C7.72556 17.4381 7.723 17.4606 7.55817 17.5405C7.43311 17.6013 7.38882 17.7245 7.44878 17.8444C7.50965 17.9657 7.44607 18.1339 7.28908 18.2668C7.08311 18.4413 7.06428 18.5315 7.19943 18.6974C7.32765 18.8547 7.32599 18.9416 7.19265 19.0452C7.05614 19.1515 7.08266 19.2215 7.30761 19.3488C7.47108 19.4413 7.51598 19.5144 7.40931 19.5144C7.20078 19.5144 7.23559 20.0906 7.54491 21.7518C7.72888 22.7395 7.91375 23.2111 8.117 23.2111C8.34164 23.2111 8.2978 23.9903 8.06471 24.1385C7.94328 24.2158 7.84383 24.4183 7.84383 24.5883C7.84383 24.7585 7.7795 24.9472 7.70085 25.0075C7.6222 25.0679 7.52999 25.3111 7.49594 25.548C7.42543 26.039 7.15935 26.3432 6.87399 26.2593C6.73914 26.2195 6.64858 26.3721 6.57867 26.757C6.52323 27.0624 6.38567 27.4055 6.27282 27.5196C6.03175 27.7636 6.13074 28.1786 6.43012 28.1786C6.54462 28.1786 6.63849 28.2305 6.63849 28.2941C6.63849 28.3576 6.53197 28.4096 6.40164 28.4096C6.24841 28.4096 6.17458 28.5013 6.19236 28.6695C6.24344 29.1531 6.18905 29.2183 5.73448 29.2183C5.43315 29.2183 5.28248 29.276 5.28248 29.3915C5.28248 29.4868 5.35028 29.5648 5.43315 29.5648C5.51601 29.5648 5.58381 29.6948 5.58381 29.8536C5.58381 30.0125 5.51601 30.1424 5.43315 30.1424C5.35028 30.1424 5.28248 30.0801 5.28248 30.0038C5.28248 29.8975 5.24104 29.897 5.10529 30.001C5.00796 30.0757 4.90641 30.541 4.87974 31.035C4.85323 31.5289 4.80245 32.037 4.76704 32.1641C4.73179 32.2912 4.69774 32.4341 4.69141 32.4818C4.68493 32.5295 4.57404 32.5684 4.44491 32.5684C4.31579 32.5684 4.24739 32.6149 4.29319 32.6717C4.33899 32.7284 4.26893 33.0013 4.13755 33.2782C3.75591 34.0823 3.84631 34.8789 4.31926 34.8789C4.44265 34.8789 4.52914 34.9979 4.52914 35.1677C4.52914 35.3474 4.44371 35.4565 4.30314 35.4565C4.08467 35.4565 4.01325 35.6413 4.0693 36.063C4.08406 36.1741 4.03269 36.2651 3.95524 36.2651C3.87765 36.2651 3.77037 36.4757 3.71674 36.7331C3.64306 37.0862 3.67967 37.2477 3.86529 37.39C4.09326 37.5646 4.08964 37.585 3.81829 37.6619C3.5745 37.7311 3.53187 37.8391 3.56607 38.3025C3.58867 38.609 3.68178 38.8788 3.77309 38.9022C3.89196 38.9325 3.8897 38.9903 3.76495 39.1054C3.66928 39.1939 3.53036 39.2374 3.45638 39.2024C3.38225 39.1673 3.27829 39.2251 3.22541 39.3309C3.17252 39.4366 3.20296 39.558 3.29306 39.6007C3.54045 39.718 3.51183 41.2183 3.25177 41.7776C3.21577 41.855 3.25117 41.9491 3.33042 41.9866C3.53458 42.0834 3.50927 42.6615 3.29366 42.8268C3.15309 42.9346 3.15309 42.9963 3.29366 43.1041C3.3931 43.1803 3.47446 43.3657 3.47446 43.516C3.47446 43.6663 3.53789 43.8803 3.61549 43.9914C3.6973 44.1085 3.70408 44.3722 3.63161 44.6183C3.56049 44.8604 3.56366 45.0162 3.63899 44.9805C3.71176 44.9461 3.72789 45.0841 3.67485 45.2874C3.60886 45.5406 3.64532 45.6972 3.79056 45.7842C3.99472 45.9065 4.09024 46.6474 4.08813 48.0921C4.08768 48.402 4.15307 48.75 4.23353 48.8653C4.33131 49.0054 4.32287 49.1707 4.20806 49.364C4.08813 49.5657 4.08075 49.7875 4.18351 50.0979C4.29741 50.4419 4.28084 50.6003 4.11028 50.7973C3.91336 51.0248 3.91592 51.052 4.13409 51.052C4.26848 51.052 4.38887 51.1171 4.40137 51.1964C4.46932 51.6233 4.46089 51.6993 4.33176 51.8318C4.24016 51.9257 4.2501 51.9762 4.36009 51.9762C4.45305 51.9762 4.52914 52.1062 4.52914 52.265C4.52914 52.4238 4.46299 52.5538 4.38224 52.5538C4.28912 52.5538 4.28596 52.6559 4.37335 52.8323C4.44928 52.9855 4.51287 53.4663 4.51467 53.9009C4.51995 55.1617 4.54074 55.3264 4.69457 55.3264C4.77458 55.3264 4.824 55.5084 4.80441 55.7309C4.77382 56.0794 4.72606 56.1259 4.46058 56.0653C4.29108 56.0268 3.81346 55.7441 3.39913 55.4371C2.98479 55.1302 2.45293 54.8429 2.21714 54.7986C1.939 54.7464 1.85297 54.6876 1.9723 54.631C2.10112 54.57 1.9598 54.3757 1.50056 53.9821C1.14001 53.6731 0.83084 53.402 0.813664 53.3797C0.796337 53.3574 0.683487 53.4094 0.562802 53.4952C0.37959 53.6256 0.375371 53.6989 0.53749 53.9403C0.644314 54.0994 0.874082 54.3284 1.04841 54.4492C1.22258 54.5701 1.36511 54.7389 1.36511 54.8244C1.36511 54.9099 1.46681 54.9798 1.59111 54.9798C1.71541 54.9798 1.81711 55.0462 1.81711 55.1273C1.81711 55.2085 2.02052 55.4456 2.26912 55.6543C2.51772 55.863 2.72112 56.0618 2.72112 56.096C2.72112 56.2086 3.74235 56.9437 3.89889 56.9437C3.98312 56.9437 4.07909 56.8813 4.11239 56.8049C4.15925 56.697 4.19737 56.697 4.28445 56.8049C4.34593 56.8813 4.32122 56.9437 4.22961 56.9437C4.138 56.9437 4.28581 57.1647 4.55822 57.4346C4.83047 57.7046 5.07471 57.9501 5.10077 57.98C5.12684 58.0099 5.20383 57.9655 5.27178 57.881C5.35842 57.7737 5.42637 57.7661 5.49854 57.8555C5.73524 58.1493 6.26363 57.9808 6.67616 57.48C6.90412 57.2035 7.09049 56.9195 7.09049 56.8489C7.09049 56.7785 7.23288 56.6624 7.4069 56.591C7.6332 56.4981 7.70341 56.3818 7.65369 56.1825C7.60292 55.9786 7.65128 55.904 7.83464 55.904C8.13899 55.904 8.43717 55.6926 8.38413 55.5144C8.36274 55.4428 8.37645 55.4294 8.41457 55.4849C8.45268 55.5403 8.66196 55.4532 8.87953 55.2914C9.33952 54.9493 10.2128 54.3379 10.7565 53.9773C11.0163 53.805 11.1102 53.6501 11.0544 53.4863C10.9871 53.2892 11.0424 53.2469 11.3669 53.2469C11.7003 53.2469 11.7612 53.1959 11.7612 52.9164C11.7612 52.6316 11.8103 52.5931 12.1157 52.6378C12.3541 52.6728 12.6081 52.5918 12.8911 52.3907C13.1225 52.2263 13.3568 52.0917 13.4116 52.0917C13.4665 52.0917 13.4977 51.8707 13.4808 51.6008C13.422 50.654 13.1266 50.3645 12.7512 50.8857C12.5222 51.2037 12.3152 51.293 12.1795 51.1325C12.0922 51.0294 12.0258 51.038 11.9177 51.167C11.7925 51.3166 11.746 51.3113 11.5709 51.1277C11.3872 50.9351 11.3503 50.9326 11.1698 51.0994C11.0604 51.2003 10.9066 51.2831 10.828 51.2831C10.7493 51.2831 10.5833 51.361 10.459 51.4563C10.3238 51.56 10.3014 51.6296 10.4034 51.6296C10.4969 51.6296 10.5318 51.6816 10.4805 51.7452C10.4293 51.8087 10.2559 51.8607 10.095 51.8607C9.92245 51.8607 9.80252 51.9397 9.80252 52.0533C9.80252 52.1591 9.75762 52.2113 9.70278 52.1692C9.52122 52.0302 7.84383 53.1121 7.84383 53.3685C7.84383 53.4287 7.57414 53.6848 7.24463 53.9374C6.45588 54.5422 6.17443 54.4688 6.20818 53.6673C6.25203 52.624 6.15213 50.9982 6.03687 50.8787C5.97555 50.8152 5.87897 50.2714 5.82217 49.6704C5.76537 49.0693 5.65523 48.5187 5.57734 48.4468C5.49944 48.3748 5.47473 48.2861 5.52249 48.2494C5.66518 48.14 5.69832 47.0051 5.56061 46.94C5.49055 46.9067 5.42832 46.6877 5.4226 46.4532C5.41672 46.2187 5.35751 45.9228 5.29077 45.7957C5.22417 45.6687 5.22748 45.4792 5.2983 45.3747C5.38328 45.2491 5.35239 45.1373 5.20714 45.0448C5.05678 44.9492 5.03026 44.8437 5.12322 44.7105C5.29544 44.4638 5.25219 41.9257 5.07576 41.9257C5.00344 41.9257 5.03056 41.846 5.13603 41.7485C5.28353 41.6123 5.28805 41.5121 5.15531 41.3153C5.06039 41.1745 4.98777 40.8254 4.9941 40.5395C5.00028 40.2535 4.9706 39.8668 4.92796 39.6799C4.88547 39.4929 4.92464 39.2342 5.01504 39.1047C5.10544 38.9752 5.19961 38.7381 5.22417 38.578C5.24888 38.4178 5.30267 38.081 5.34365 37.8297C5.41763 37.376 5.2207 37.0181 4.96412 37.1396C4.89059 37.1744 4.83047 37.1535 4.83047 37.093C4.83047 37.0324 4.92374 36.9556 5.03764 36.9221C5.15155 36.8885 5.29318 36.6129 5.35254 36.3094C5.44143 35.8553 5.41401 35.7314 5.19765 35.6102C4.96442 35.4793 4.96155 35.455 5.17234 35.3929C5.67391 35.2454 5.91634 34.5767 5.80334 33.6522C5.74081 33.1411 5.60687 32.718 5.47548 32.6173C5.35314 32.5236 5.29152 32.3703 5.33838 32.2766C5.4797 31.9944 5.73328 32.0848 5.75196 32.424C5.76386 32.6395 5.79249 32.6731 5.84116 32.5284C5.88048 32.4112 6.0206 32.2187 6.15244 32.1007C6.40872 31.8712 6.46447 31.6981 6.58772 30.7489C6.64211 30.3289 6.73251 30.1424 6.88137 30.1424C7.11551 30.1424 7.03008 29.6354 6.74998 29.3627C6.64422 29.2597 6.67179 29.2183 6.84611 29.2183C6.98051 29.2183 7.09049 29.1403 7.09049 29.045C7.09049 28.9497 7.18511 28.8717 7.30068 28.8717C7.46355 28.8717 7.48359 28.7795 7.39002 28.4614C7.30369 28.1677 7.31891 28.0637 7.44366 28.096C7.62733 28.1433 7.9945 27.5919 7.9945 27.2688C7.9945 27.1643 8.164 26.9385 8.37117 26.7672C8.57834 26.596 8.74784 26.3301 8.74784 26.1764C8.74784 25.6554 8.93527 25.175 9.13868 25.175C9.25228 25.175 9.30486 25.2474 9.25831 25.3402C9.13928 25.5781 9.60801 26.2727 9.99763 26.4358C10.1804 26.5121 10.496 26.7796 10.6991 27.03C10.9022 27.2805 11.1566 27.4854 11.2642 27.4854C11.3717 27.4854 11.4599 27.5574 11.4599 27.6454C11.4599 27.9073 12.1926 28.2075 12.6274 28.1239C12.8733 28.0765 13.0586 28.1045 13.1383 28.2007C13.232 28.3142 13.2638 28.3014 13.2656 28.1497C13.2695 27.7969 13.9347 27.8495 14.4815 28.246C14.9124 28.5585 15.9255 28.6529 15.7825 28.3673C15.7295 28.2614 15.8979 28.1647 16.2937 28.0738C16.8704 27.9414 16.9639 27.8286 16.908 27.3343C16.8931 27.2031 16.9492 27.1562 17.0585 27.2079C17.1777 27.2644 17.2059 27.2119 17.1477 27.0413C17.101 26.9043 17.115 26.7923 17.1789 26.7923C17.3038 26.7923 17.7879 25.894 17.7879 25.6621C17.7879 25.5847 17.6862 25.5215 17.5619 25.5215C17.2555 25.5215 17.2764 25.2919 17.5996 25.1089C17.8108 24.9892 17.8259 24.9304 17.6749 24.813C17.5714 24.7325 17.4866 24.5471 17.4866 24.401C17.4866 24.2548 17.4182 24.1353 17.3347 24.1353C17.2425 24.1353 17.2537 24.0482 17.3632 23.9136C17.5045 23.7402 17.5027 23.6539 17.3549 23.5174C17.2509 23.4215 17.1375 23.1705 17.1028 22.9599C17.068 22.7493 16.9707 22.5594 16.8865 22.5378C16.8021 22.5163 16.7332 22.4277 16.7332 22.341C16.7332 22.2541 16.4791 22.0405 16.1682 21.8662C15.8576 21.6918 15.5159 21.4685 15.409 21.3699C15.2371 21.2113 15.1963 21.2106 15.0557 21.3633C14.9222 21.5084 14.9102 21.504 14.9807 21.3356C15.0709 21.1202 14.6034 20.8461 14.3935 20.9913C14.328 21.0367 14.3301 21.0001 14.3985 20.9099C14.4901 20.7888 14.4589 20.7645 14.2796 20.8173C14.1089 20.8676 14.0615 20.8391 14.1204 20.7215C14.2311 20.5001 13.7756 20.5031 13.2148 20.7273C12.9747 20.8233 12.6259 20.8685 12.4238 20.8296C12.1291 20.7729 12.0625 20.8044 12.0625 21.0008C12.0625 21.2101 12.0131 21.2271 11.6842 21.1312C11.3597 21.0366 11.2474 21.0714 10.8932 21.3767C10.6663 21.5724 10.294 21.8066 10.0662 21.8971C9.78369 22.0094 9.65185 22.1528 9.65185 22.3477C9.65185 22.6897 9.35503 22.7296 9.24354 22.4024C9.20015 22.2754 9.10478 22.1714 9.03155 22.1714C8.95833 22.1714 8.90348 21.9245 8.90966 21.6226C8.92699 20.7633 8.70083 19.9765 8.43641 19.9765C8.21674 19.9765 8.27158 19.612 8.51265 19.4693C8.66226 19.3808 8.75929 18.9835 8.82604 18.1865C8.87907 17.5516 8.99087 16.9691 9.07419 16.892C9.15751 16.8149 9.18026 16.6954 9.12451 16.6263C9.06877 16.5572 9.10523 16.4249 9.20527 16.3324C9.33349 16.214 9.33741 16.1642 9.21823 16.1642C8.9758 16.1642 9.0097 15.8644 9.27518 15.6609C9.58269 15.425 9.5622 15.3676 9.12451 15.24C8.91734 15.1796 8.75327 15.064 8.75975 14.983C8.76909 14.8671 8.78777 14.8665 8.84759 14.9801C9.02025 15.3081 9.65185 14.9684 9.65185 14.5476C9.65185 14.4117 9.73246 14.1872 9.83099 14.0483C9.92938 13.9096 10.024 13.718 10.0412 13.6227C10.0582 13.5274 10.1536 13.1635 10.253 12.8141C10.3523 12.4646 10.4626 11.9967 10.498 11.7744C10.5931 11.1785 10.6645 11.0812 11.0079 11.0812C11.1789 11.0812 11.3559 10.9903 11.4016 10.8791C11.4471 10.7678 11.5599 10.5469 11.6521 10.3881C11.7443 10.2292 11.8313 10.0093 11.8451 9.89919C11.8591 9.7891 11.9602 9.61627 12.0698 9.51496C12.2361 9.36132 12.2332 9.31337 12.0529 9.22581C11.8753 9.13963 11.8837 9.12057 12.1002 9.11907C12.2453 9.11814 12.3735 9.02642 12.3853 8.91517C12.4052 8.72652 12.4241 8.56594 12.4888 8.04193C12.5029 7.92699 12.5762 7.86218 12.6517 7.89788C12.727 7.93357 12.8983 7.93057 13.0321 7.89118C13.212 7.83827 13.2334 7.78062 13.1139 7.67018C12.9944 7.55986 13.023 7.48026 13.223 7.3659C13.5377 7.18568 14.4732 6.15995 14.4732 5.99487C14.4732 5.93318 14.5749 5.8827 14.6992 5.8827C14.9719 5.8827 15.0027 5.57345 14.7369 5.50344C14.6334 5.47606 14.668 5.46763 14.8142 5.48449C15.1752 5.52631 15.4809 5.09726 15.1577 5.00219C14.8145 4.90122 14.8749 4.69039 15.2267 4.76098C15.3926 4.79425 15.4904 4.77426 15.4438 4.71673C15.3974 4.65909 15.4942 4.61195 15.659 4.61195C16.0099 4.61195 16.4732 4.29461 16.3484 4.1397C16.301 4.0809 16.3606 4.00373 16.481 3.96826C16.6014 3.93291 16.6832 3.81623 16.6629 3.70914C16.6425 3.60205 16.6549 3.57953 16.6906 3.65889C16.7988 3.90022 17.0814 3.81334 17.6957 3.35033C18.2497 2.93272 18.3409 2.5813 17.8584 2.72327C17.5539 2.8128 17.5785 2.56928 17.8874 2.43666C18.1123 2.3402 18.1061 2.31664 17.8257 2.20146C17.563 2.09368 17.4385 2.12776 17.0323 2.41864ZM15.7884 21.8946C15.7384 21.9329 15.6084 21.9371 15.4997 21.9037C15.3795 21.8669 15.4152 21.8395 15.5907 21.8339C15.7495 21.829 15.8384 21.8562 15.7884 21.8946ZM14.6775 22.4842C14.7485 22.5791 14.9349 22.741 15.0919 22.8441C15.2489 22.9471 15.3772 23.0941 15.3772 23.1708C15.3772 23.2474 15.4658 23.3788 15.574 23.4628C15.7379 23.59 15.9312 23.8601 16.0552 24.1353C16.0696 24.167 16.1339 24.2846 16.1981 24.3967C16.2624 24.5086 16.2516 24.6646 16.1741 24.7433C15.9743 24.9459 15.9645 25.4259 16.1566 25.6033C16.277 25.7147 16.2291 25.8544 15.9718 26.1424C15.5351 26.631 14.8916 26.8919 14.0212 26.9333C13.3978 26.963 13.33 26.997 13.1785 27.3561C13.0508 27.6595 12.9919 27.7025 12.9149 27.5488C12.8605 27.44 12.8159 27.2513 12.8159 27.1294C12.8159 27.0075 12.7312 26.9061 12.6275 26.904C12.3646 26.8986 11.6973 26.4561 11.8156 26.3655C11.9263 26.2806 11.4819 25.8681 11.2795 25.8681C11.0314 25.8681 10.6018 25.4662 10.4276 25.0711C10.2144 24.5874 10.2036 24.1353 10.4052 24.1353C10.4881 24.1353 10.5559 24.0297 10.5559 23.9006C10.5559 23.7715 10.6576 23.636 10.7819 23.5995C10.9062 23.5628 11.0079 23.4719 11.0079 23.3973C11.0079 23.3228 11.2113 23.2029 11.4599 23.1309C11.7632 23.0431 11.9119 22.9208 11.9119 22.759C11.9119 22.5817 12.0072 22.5179 12.2724 22.5179C12.4707 22.5179 12.6708 22.4424 12.717 22.35C12.8315 22.1212 14.4912 22.2348 14.6775 22.4842ZM14.5761 27.8537C14.5281 27.9458 14.4924 27.9184 14.4851 27.7838C14.4787 27.6621 14.5142 27.5939 14.5642 27.6322C14.6143 27.6706 14.6197 27.7703 14.5761 27.8537ZM5.40226 33.7814C5.433 33.9318 5.40557 33.964 5.32406 33.8738C5.25506 33.7976 5.03101 33.6814 4.82626 33.6157C4.45998 33.4983 4.46119 33.4966 4.90445 33.5233C5.22387 33.5425 5.36896 33.6177 5.40226 33.7814Z" fill="white"/>
</svg>
