<svg width="221" height="21" viewBox="0 0 221 21" fill="none" xmlns="http://www.w3.org/2000/svg">
<path fill-rule="evenodd" clip-rule="evenodd" d="M134.505 0.236378C134.313 0.363054 132.699 0.441758 130.92 0.411343C128.213 0.364937 127.621 0.441444 127.294 0.87948C126.931 1.36518 126.916 1.36424 127.082 0.863802C127.24 0.388452 127.046 0.333267 125.433 0.393469C124.428 0.431409 123.605 0.548366 123.605 0.65372C123.605 0.759389 123.247 0.774125 122.81 0.686644C122.235 0.571882 122.078 0.633967 122.241 0.910209C122.403 1.18363 122.285 1.17422 121.826 0.877286C121.285 0.526104 121.142 0.534569 120.9 0.932471C120.71 1.24509 120.612 1.27142 120.609 1.01086C120.603 0.527671 116.537 0.454613 116.254 0.932471C116.152 1.10493 116.212 1.24603 116.386 1.24603C116.561 1.24603 116.704 1.38713 116.704 1.55958C116.704 2.14342 116.049 1.87753 115.887 1.22784C115.739 0.63773 115.556 0.596026 113.739 0.739321C112.647 0.825548 111.589 0.904251 111.388 0.914285C111.167 0.92526 111.1 1.14914 111.22 1.48119C111.392 1.96156 111.353 1.9763 110.91 1.59972C110.632 1.36298 110.404 1.27425 110.404 1.4028C110.404 1.53136 110.235 1.50816 110.029 1.35169C109.462 0.921497 106.592 1.0927 106.014 1.59156C105.622 1.92958 105.477 1.94055 105.381 1.64048C105.301 1.39308 105.073 1.34323 104.754 1.50345C104.479 1.64236 103.671 1.72733 102.96 1.69222C101.985 1.64393 101.523 1.78816 101.088 2.27637C100.77 2.63319 100.418 2.82948 100.307 2.71252C100.195 2.59588 100.269 2.50025 100.471 2.50025C100.673 2.50025 100.755 2.35915 100.653 2.18669C100.551 2.01424 99.8779 1.87314 99.1566 1.87314C98.0349 1.87314 97.8261 1.97536 97.7151 2.57864L97.5849 3.28413L97.5441 2.57864C97.5003 1.82171 97.037 1.6201 96.8237 2.26508C96.6224 2.87463 97.2258 4.01974 97.7667 4.05391C99.643 4.17275 101.407 4.14108 102.303 3.97207C102.881 3.86358 104.13 3.746 105.079 3.71088C106.686 3.65162 106.942 3.49798 106.835 2.65702C106.813 2.48457 106.981 2.59055 107.207 2.89219C107.729 3.5864 108.546 3.5933 109.268 2.90975C109.684 2.51624 109.787 2.49586 109.663 2.83136C109.534 3.1838 109.827 3.29856 110.981 3.34935C112.297 3.40705 112.48 3.33587 112.597 2.72224L112.728 2.02991L112.945 2.7144C113.149 3.35406 113.313 3.39043 115.459 3.27191C116.721 3.2023 118.598 3.12234 119.629 3.09412C120.661 3.0659 121.504 2.91571 121.504 2.7605C121.504 2.60529 121.785 2.63539 122.129 2.82791C122.617 3.1007 122.864 3.07374 123.255 2.70406C123.617 2.36166 123.902 2.31682 124.286 2.54195C124.996 2.9571 128.33 3.19258 128.538 2.84234C128.628 2.68901 129.177 2.67772 129.769 2.81725C130.356 2.95553 131.538 2.97622 132.396 2.86303C133.253 2.74952 134.809 2.7282 135.854 2.81506C136.898 2.90191 137.802 2.92135 137.862 2.85833C137.923 2.79499 140.545 2.74513 143.689 2.74701C148.8 2.75015 149.406 2.6959 149.41 2.23341C149.414 1.81325 149.464 1.7982 149.679 2.15314C149.834 2.40932 150.205 2.51875 150.575 2.41778C150.922 2.32309 151.205 2.36197 151.205 2.50464C151.205 2.6473 152.15 2.74012 153.305 2.71064C154.467 2.68085 155.407 2.51686 155.41 2.34347C155.413 2.17101 155.52 2.20237 155.648 2.41276C155.815 2.68807 156.847 2.7674 159.318 2.69465C161.209 2.63915 162.891 2.55575 163.056 2.50965C163.221 2.46356 163.423 2.46011 163.506 2.50213C164.098 2.8022 167.604 2.91069 170.031 2.70406C170.898 2.63037 171.606 2.66016 171.606 2.77022C171.606 2.88059 171.91 3.00005 172.281 3.03611C174.763 3.27661 176.005 3.27285 176.331 3.02357C176.571 2.84014 176.706 2.86366 176.706 3.0891C176.706 3.58546 178.664 3.52839 179.067 3.02012C179.251 2.78872 179.332 2.52658 179.247 2.43754C179.162 2.3488 179.298 2.09764 179.549 1.87941C179.924 1.55394 180.007 1.56742 180.007 1.95309C180.007 2.21178 179.806 2.59776 179.56 2.81098C178.815 3.45722 179.297 3.67765 181.504 3.6996C182.663 3.71088 183.746 3.80746 183.911 3.91407C184.076 4.02068 184.293 3.88302 184.394 3.60835C184.56 3.1584 184.615 3.16153 184.95 3.64033C185.296 4.13512 185.347 4.13042 185.687 3.57135C185.986 3.07907 186.023 3.06966 185.889 3.5193C185.785 3.87017 185.884 4.06802 186.166 4.06802C186.409 4.06802 186.611 3.82125 186.616 3.5193C186.625 3.03674 186.67 3.02796 186.991 3.44593C187.244 3.77453 187.82 3.90215 188.857 3.85888C189.682 3.8247 191.006 3.95703 191.799 4.153C192.929 4.43206 193.375 4.42234 193.856 4.10878C194.194 3.88835 194.381 3.85982 194.271 4.04482C194.158 4.23515 194.308 4.39193 194.614 4.40572C194.913 4.41889 195.427 4.49634 195.757 4.57818C196.289 4.70956 198.908 4.75283 199.451 4.63901C199.564 4.61518 199.896 4.70454 200.187 4.83749C200.478 4.97043 200.984 5.00618 201.312 4.9165C201.64 4.82714 201.908 4.8632 201.908 4.99646C201.908 5.13003 202.481 5.24103 203.183 5.24323C204.4 5.2473 205.641 5.41161 208.415 5.93681C209.204 6.08638 209.79 6.05126 209.99 5.84275C210.214 5.60852 210.308 5.62169 210.308 5.88664C210.308 6.38457 211.116 6.37171 211.309 5.87096C211.43 5.55741 211.465 5.55741 211.484 5.87096C211.518 6.4269 212.708 6.36011 212.708 5.80229C212.708 5.53076 212.885 5.41286 213.139 5.51476C213.376 5.60977 213.502 5.87347 213.419 6.10017C213.315 6.38175 213.513 6.49808 214.042 6.46609C214.696 6.4269 214.745 6.36418 214.354 6.06474C213.937 5.74554 213.938 5.69098 214.365 5.51978C214.639 5.40972 214.762 5.46052 214.656 5.63925C214.555 5.80982 214.616 5.94935 214.79 5.94935C214.965 5.94935 215.108 6.161 215.108 6.41969C215.108 6.92137 215.465 7.03958 215.829 6.65893C216.2 6.27137 217.037 6.39272 217.424 6.89002C217.748 7.30799 217.791 7.30799 217.803 6.89002C217.812 6.59308 217.898 6.54323 218.038 6.75488C218.276 7.11797 220.816 8.24113 220.989 8.06021C221.047 7.99938 220.871 7.61652 220.598 7.20922C220.133 6.51469 220.09 6.5056 219.903 7.06279C219.718 7.61276 219.646 7.59238 218.937 6.79313C218.468 6.26291 217.812 5.90295 217.241 5.86093C216.728 5.8233 216.309 5.69851 216.309 5.58343C216.307 4.89048 210.839 3.60835 209.963 4.0953C209.619 4.28594 209.416 4.22794 209.297 3.9056C209.19 3.61431 208.724 3.44091 208.049 3.44091C207.268 3.44091 207.034 3.54846 207.198 3.83286C207.338 4.07712 207.223 4.05517 206.892 3.77422C206.6 3.5262 205.994 3.30546 205.545 3.28351C205.097 3.26156 204.563 3.13551 204.358 3.0035C204.154 2.87118 202.945 2.70939 201.672 2.64385C200.399 2.57801 199.357 2.50589 199.357 2.483C199.357 2.23184 196.9 2.35977 196.737 2.6194C196.581 2.86742 196.515 2.8555 196.512 2.57864C196.509 2.36322 196.364 2.18669 196.19 2.18669C196.015 2.18669 195.964 2.34253 196.076 2.53286C196.189 2.72318 195.961 2.66925 195.569 2.41339C194.727 1.86279 191.107 1.42287 191.107 1.87125C191.107 2.04779 190.787 2.02082 190.335 1.80572C189.711 1.50847 189.513 1.52446 189.295 1.89101C189.071 2.26759 188.92 2.27543 188.4 1.93804C187.777 1.53481 186.286 1.30686 182.857 1.09082C181.867 1.02842 181.057 0.957556 181.057 0.933726C181.057 0.909582 180.494 0.864116 179.807 0.83276C178.825 0.787922 178.625 0.861294 178.874 1.17485C179.115 1.47774 179.073 1.52634 178.699 1.37647C178.428 1.26766 178.207 1.04566 178.207 0.882929C178.207 0.71988 177.498 0.603238 176.631 0.623619C175.29 0.655288 169.671 0.440503 166.65 0.242023C166.152 0.209413 165.504 0.279335 165.21 0.397232C164.888 0.526103 164.748 0.488163 164.858 0.301911C165.116 -0.134558 164.599 -0.0850152 164.166 0.368072C163.886 0.660619 163.726 0.660619 163.446 0.368072C163.001 -0.0969303 161.706 -0.129541 161.706 0.32386C161.706 0.506349 161.545 0.552442 161.349 0.425765C160.93 0.15454 153.285 0.014382 153.439 0.28059C153.496 0.380614 153.186 0.734618 152.75 1.06761L151.955 1.6734L152.527 0.989224C153.098 0.306615 153.097 0.305361 152.227 0.276201C151.748 0.259896 150.849 0.210667 150.23 0.166456C149.568 0.119422 149.104 0.228226 149.101 0.431097C149.098 0.625814 148.986 0.594145 148.843 0.358038C148.594 -0.0527195 147.115 0.00372121 146.424 0.450224C146.249 0.563417 146.105 0.541781 146.105 0.402249C146.105 0.00967762 140.593 0.18621 140.467 0.583171C140.393 0.812066 140.084 0.775067 139.519 0.469978C139.058 0.220701 138.603 0.0984146 138.507 0.198125C138.293 0.422317 136.085 0.406012 135.375 0.175235C135.089 0.0821092 134.697 0.109702 134.505 0.236378ZM109.054 1.87314C109.156 2.04559 109.104 2.18669 108.939 2.18669C108.774 2.18669 108.556 2.04559 108.454 1.87314C108.352 1.70068 108.403 1.55958 108.568 1.55958C108.733 1.55958 108.952 1.70068 109.054 1.87314ZM92.2978 2.34566C91.8663 2.57958 91.4457 2.65734 91.3635 2.51812C91.1598 2.17352 89.6729 2.19171 89.0279 2.54697C88.6781 2.73949 88.5029 2.72036 88.5029 2.49021C88.5029 2.29988 88.2665 2.22024 87.9779 2.31274C87.6893 2.40524 86.9611 2.5131 86.3599 2.5523C85.6294 2.60027 85.3147 2.7536 85.4107 3.01479C85.4998 3.25811 85.3174 3.38729 84.9286 3.35657C84.5844 3.3296 84.3027 3.14931 84.3027 2.95616C84.3027 2.51185 83.2047 2.58177 82.752 3.05493C82.5297 3.28727 82.2309 3.31079 81.8936 3.12234C81.5741 2.94361 80.3594 2.95898 78.7144 3.16247C77.2503 3.3434 75.1749 3.524 74.1023 3.56351C73.0298 3.60302 71.875 3.79366 71.536 3.98681C71.197 4.17965 70.7449 4.2248 70.531 4.08652C70.3168 3.94824 69.6492 3.94605 69.0471 4.08119C68.4447 4.21633 66.9197 4.39255 65.6579 4.47251C64.396 4.55278 63.2056 4.72053 63.0121 4.84532C62.8189 4.97012 61.8261 5.13066 60.8061 5.20152C58.0091 5.39624 56.7019 5.55459 55.0564 5.89762C54.234 6.06913 53.4579 6.1425 53.3313 6.06098C53.205 5.97914 53.1015 6.04655 53.1015 6.21086C53.1015 6.37516 52.8921 6.5934 52.6359 6.69624C52.3796 6.79877 52.2392 6.76616 52.3235 6.62381C52.4978 6.32875 50.8814 6.40087 49.897 6.73167C49.4467 6.88312 49.3012 7.11327 49.4302 7.46978C49.5934 7.92005 49.5478 7.91503 49.0816 7.43184C48.6622 6.99757 48.2404 6.91448 47.1483 7.05181C46.3797 7.14839 45.3402 7.2666 44.8376 7.31426C44.3351 7.36192 43.7951 7.48044 43.6376 7.57796C43.4801 7.67547 42.9797 7.71122 42.526 7.6576C42.0724 7.60398 41.701 7.68958 41.701 7.84824C41.701 8.0069 41.4646 8.11602 41.176 8.09093C40.0425 7.99154 39.5658 8.14487 39.7908 8.53618C39.9438 8.80239 39.8535 8.79016 39.5085 8.49793C39.1935 8.23078 39.0009 8.19723 39.0009 8.40951C39.0009 8.59764 38.8122 8.67603 38.5812 8.58322C38.3505 8.49072 38.0712 8.56816 37.9605 8.75504C37.8498 8.94224 37.6496 9.02407 37.5152 8.93753C37.1354 8.69202 32.3784 9.38748 31.677 9.79103C31.3326 9.9892 30.7236 10.1733 30.3236 10.1996C29.9237 10.2262 29.3498 10.5665 29.0486 10.9556C28.5473 11.6024 28.3514 11.5645 28.4786 10.8455C28.5461 10.4624 25.6942 10.8286 25.5697 11.219C25.5145 11.392 25.0833 11.4698 24.6111 11.392C23.5947 11.2246 23.1882 11.726 23.7495 12.4544C24.1164 12.9303 24.0879 12.9297 23.4168 12.4468C22.6694 11.9091 20.9777 11.9483 19.6501 12.534C19.3201 12.6795 18.6733 12.8846 18.2128 12.9893C17.7522 13.0937 17.4507 13.3066 17.5425 13.4621C17.6346 13.6177 17.5644 13.8387 17.3868 13.9535C17.1786 14.088 17.2524 14.3059 17.5944 14.5674C18.2029 15.0321 18.9988 14.8411 18.6907 14.304C18.5776 14.1065 18.7126 14.1382 18.991 14.374C19.423 14.7402 19.6087 14.7267 20.257 14.2827C20.6753 13.9964 21.1391 13.8409 21.2879 13.9372C21.437 14.0334 21.647 13.9629 21.7547 13.7807C21.8624 13.5982 22.2299 13.5418 22.5707 13.655C23.052 13.8146 23.1507 13.7506 23.0109 13.3699C22.8656 12.9749 22.959 12.9307 23.4906 13.1436C23.9847 13.3411 24.3321 13.2386 24.8736 12.7356C25.2714 12.3659 25.5058 12.2302 25.3938 12.434C25.0764 13.0119 25.6501 13.1884 26.2804 12.7068C26.6014 12.4613 26.9809 12.387 27.1525 12.5359C27.6526 12.9699 29.5499 12.4177 29.5544 11.837C29.5592 11.1851 29.9885 10.7116 30.0359 11.3058C30.0557 11.5501 30.0512 11.8693 30.0266 12.0148C29.9207 12.6394 30.753 11.9467 30.9375 11.2566C31.0707 10.7583 31.1511 10.6853 31.1706 11.0446C31.1979 11.5454 31.7904 11.7812 32.5506 11.5937C32.7156 11.5529 33.1207 11.4836 33.4507 11.4397C33.7807 11.3958 34.0507 11.3237 34.0507 11.2798C34.0507 11.1597 35.0452 11.0001 37.0508 10.7988C39.1473 10.5881 39.6924 10.4338 39.4986 10.1062C39.4215 9.97572 39.7503 9.86879 40.2295 9.86879C40.7089 9.86879 41.101 9.96129 41.101 10.0745C41.101 10.1877 41.371 10.2065 41.701 10.1165C42.031 10.0262 42.301 9.82082 42.301 9.65996C42.301 9.49817 42.8981 9.44079 43.6373 9.53172C44.5811 9.64774 45.1028 9.56088 45.4134 9.23635C45.7284 8.90743 45.8865 8.88235 45.9714 9.14824C46.0623 9.43358 46.5708 9.43169 48.1705 9.13915C49.315 8.93001 50.4875 8.75285 50.7764 8.74564C51.0653 8.73843 51.3014 8.59732 51.3014 8.43239C51.3014 8.26746 51.6407 8.22137 52.0553 8.33018C52.4876 8.44337 52.9995 8.36279 53.2554 8.14079C53.5008 7.92789 53.7015 7.8843 53.7015 8.04359C53.7015 8.21887 54.5031 8.22827 55.7266 8.06742C56.8405 7.92067 58.0892 7.81093 58.5017 7.82347C58.9142 7.8357 59.8592 7.70275 60.6018 7.52747C61.3443 7.35251 62.6269 7.14588 63.4519 7.06843C64.2769 6.9913 65.4245 6.83985 66.002 6.7323C66.5795 6.62475 67.9296 6.4918 69.0021 6.43724C72.7202 6.24754 75.7542 5.88507 76.1007 5.58908C76.2939 5.42446 76.521 5.41349 76.6104 5.56462C76.8375 5.94873 79.2886 5.69914 80.0276 5.21658C80.234 5.08175 80.4026 5.09836 80.4026 5.25326C80.4026 5.40816 80.8412 5.48435 81.3776 5.42258C81.914 5.36081 82.7895 5.27928 83.3232 5.24134C84.3486 5.16891 84.8869 4.44993 84.2379 4.01942C84.0261 3.87895 83.9664 3.76199 84.1053 3.75917C84.2445 3.75666 84.7014 4.03667 85.1209 4.38158C85.8997 5.02186 88.2029 5.27521 88.2029 4.72053C88.2029 4.54933 88.6406 4.55842 89.2802 4.74311C90.6072 5.12596 91.2516 4.90929 91.0197 4.15833C90.9099 3.80338 90.9405 3.7322 91.1028 3.96486C91.4901 4.51954 93.0031 4.84783 93.0031 4.37719C93.0031 4.07241 93.0973 4.07304 93.4504 4.37907C93.7504 4.63963 94.3453 4.69701 95.2586 4.55403C96.5876 4.34552 96.6176 4.31542 96.5501 3.26375C96.5075 2.60247 96.3236 2.18669 96.0743 2.18669C95.8508 2.18669 95.7599 2.34253 95.8724 2.53286C95.9849 2.72318 95.723 2.63633 95.2901 2.34002C94.8374 2.02991 94.5031 1.94619 94.5031 2.14279C94.5031 2.37294 94.2706 2.39238 93.7927 2.20237C93.3085 2.00985 92.833 2.05563 92.2978 2.34566ZM105.123 2.76144C105.208 2.90536 105.087 3.02294 104.854 3.02294C104.62 3.02294 104.5 2.90536 104.584 2.76144C104.669 2.61783 104.791 2.50025 104.854 2.50025C104.917 2.50025 105.038 2.61783 105.123 2.76144ZM63.9019 5.96785C63.9019 6.13027 63.7669 6.26291 63.6019 6.26291C63.4369 6.26291 63.3019 6.04279 63.3019 5.77408C63.3019 5.50536 63.4369 5.37241 63.6019 5.47902C63.7669 5.58563 63.9019 5.80543 63.9019 5.96785ZM22.5002 12.3587C22.5002 12.4349 22.3652 12.5842 22.2002 12.6908C22.0352 12.7974 21.9002 12.735 21.9002 12.5525C21.9002 12.37 22.0352 12.2205 22.2002 12.2205C22.3652 12.2205 22.5002 12.2825 22.5002 12.3587ZM14.1749 14.4401C13.8038 14.5878 13.4999 14.8543 13.4999 15.0324C13.4999 15.4911 14.3192 15.4353 14.5022 14.9641C14.6195 14.6615 14.7206 14.6712 14.945 15.0064C15.2723 15.4955 16.8 15.2494 16.8 14.7073C16.8 14.4915 16.6254 14.4862 16.2753 14.6913C15.9081 14.9057 15.615 14.8738 15.3002 14.5847C14.9972 14.3065 14.6291 14.2592 14.1749 14.4401ZM12.2998 15.024C12.2998 15.1864 12.4558 15.4197 12.6463 15.5426C12.8509 15.6749 12.9115 15.6294 12.7942 15.4313C12.6853 15.2469 12.7657 15.0246 12.9731 14.9371C13.2005 14.8415 13.1417 14.7687 12.8248 14.7537C12.5359 14.7402 12.2998 14.8615 12.2998 15.024ZM10.7998 15.6743C10.7998 15.8646 10.9348 15.9329 11.0998 15.8263C11.2648 15.7197 11.3998 15.8527 11.3998 16.1214C11.3998 16.3901 11.6023 16.6102 11.8498 16.6102C12.3376 16.6102 12.4186 16.3218 12.0703 15.8263C11.7547 15.3776 10.7998 15.2635 10.7998 15.6743ZM13.9499 15.9831C13.8479 16.1556 13.9076 16.2967 14.0822 16.2967C14.2568 16.2967 14.3999 16.1556 14.3999 15.9831C14.3999 15.8107 14.3405 15.6696 14.2676 15.6696C14.1947 15.6696 14.0519 15.8107 13.9499 15.9831ZM9.3234 16.4795C9.3378 16.8448 9.4089 16.9191 9.50461 16.6692C9.59131 16.4428 9.58051 16.1722 9.48091 16.0681C9.3813 15.964 9.3105 16.149 9.3234 16.4795ZM7.19961 16.9241C6.8255 17.1843 6.8186 17.2837 7.15791 17.5123C7.68503 17.8679 8.75818 17.5775 8.61207 17.1191C8.45967 16.641 7.74774 16.5428 7.19961 16.9241ZM5.57685 17.5048C5.48984 17.6519 5.61255 18.0397 5.84956 18.3671C6.08657 18.6941 6.28488 18.797 6.28998 18.5957C6.29538 18.394 6.38148 18.0062 6.48169 17.7334C6.67429 17.2088 5.87176 17.0059 5.57685 17.5048ZM4.4611 17.8801C4.2952 18.4922 4.3237 19.4322 4.50851 19.4322C4.90482 19.4322 5.13163 18.3997 4.80942 18.0629C4.63901 17.8848 4.48241 17.8024 4.4611 17.8801ZM2.84944 18.7314C2.51583 18.9876 2.36582 20.3729 2.67183 20.3729C2.77864 20.3729 3.10265 20.0841 3.39186 19.731C4.09029 18.8788 3.66877 18.1024 2.84944 18.7314ZM1.49938 19.7273C1.49938 20.0822 1.63439 20.3729 1.7994 20.3729C1.9644 20.3729 2.09941 20.1697 2.09941 19.9211C2.09941 19.6724 1.9644 19.3821 1.7994 19.2754C1.63439 19.1688 1.49938 19.3723 1.49938 19.7273ZM0.260934 19.9628C-0.0903805 20.4155 -0.0882803 20.4541 0.275334 20.2249C0.594847 20.0236 0.65335 20.0869 0.509644 20.4782C0.40434 20.7651 0.434641 21 0.576546 21C0.836957 21 1.19937 20.255 1.19937 19.7201C1.19937 19.2598 0.708252 19.3868 0.260934 19.9628Z" fill="#6966FF"/>
</svg>
