<svg width="21" height="52" viewBox="0 0 21 52" fill="none" xmlns="http://www.w3.org/2000/svg">
<path fill-rule="evenodd" clip-rule="evenodd" d="M0.840379 4.83888C0.677588 5.16699 1.56046 7.38041 1.96362 7.65424C2.14263 7.7759 2.16387 7.95923 2.03343 8.25846C1.78099 8.83806 2.33868 10.5964 2.78296 10.6219C3.10907 10.6406 3.23895 11.3425 2.9767 11.6703C2.80533 11.8845 3.67365 13.2544 3.92819 13.1714C4.03062 13.138 4.08286 13.2338 4.04591 13.3876C4.00937 13.5397 4.05246 13.8059 4.14191 13.9796C4.23131 14.1531 4.2488 14.4395 4.18082 14.6159C4.07478 14.8907 4.41788 16.1016 5.30153 18.5722C5.38101 18.7944 5.35872 19.1518 5.252 19.3669C5.1454 19.5818 5.1005 19.8877 5.15228 20.0464C5.20412 20.2053 5.14106 20.4844 5.01245 20.6667C4.81508 20.9458 4.83103 21.0321 5.11367 21.214C5.29811 21.3327 5.50639 21.3609 5.57629 21.2768C5.64636 21.1926 5.81207 21.151 5.94468 21.1843C6.11586 21.2274 6.13405 21.307 6.00751 21.4596C5.87928 21.6136 5.96073 21.6985 6.29716 21.761C6.68151 21.8326 6.77918 21.9592 6.84383 22.4704C6.8871 22.8126 6.89414 23.301 6.8597 23.5557C6.82259 23.8297 6.92478 24.2122 7.10981 24.4926C7.28198 24.7532 7.42245 25.0581 7.42207 25.1703C7.42169 25.2824 7.64364 26.1244 7.91502 27.0414C8.21823 28.0657 8.33932 28.7603 8.22897 28.8429C8.1029 28.9374 8.14653 29.0399 8.37573 29.1874C8.59158 29.3264 8.89554 29.9903 9.27408 31.1493C9.67803 32.3868 9.91967 32.9019 10.0968 32.904C10.2349 32.9056 10.386 33.0244 10.4328 33.1678C10.5091 33.4016 10.6462 33.4237 10.9893 33.2575C11.2078 33.1516 11.5411 33.5923 11.4814 33.9079C11.3927 34.3775 12.0687 34.8534 13.184 35.1063C14.1544 35.3262 14.496 35.2067 14.332 34.7039C14.2706 34.5159 14.3895 34.3981 14.6981 34.3412C15.1983 34.2487 15.8712 33.2952 15.7336 32.8736C15.6879 32.7335 15.7414 32.4716 15.8527 32.2915C15.9639 32.1116 15.9816 31.873 15.8922 31.7614C15.8026 31.6496 15.8301 31.4755 15.9533 31.3744C16.0782 31.2715 16.0892 31.0805 15.9781 30.942C15.8687 30.8053 15.8691 30.6642 15.9791 30.6283C16.0891 30.5924 16.1495 30.4723 16.1132 30.3611C16.077 30.2501 16.2457 29.6864 16.4882 29.1082C16.7806 28.4105 16.8876 27.7857 16.8058 27.2497C16.6709 26.363 16.7486 25.6787 17.0228 25.3379C17.1206 25.2163 17.1704 25.0247 17.1336 24.9118C17.0238 24.5753 17.2056 23.0986 17.3632 23.0472C17.4436 23.0209 17.4255 22.7431 17.3232 22.4296C17.2209 22.1162 17.2189 21.5897 17.3185 21.2598C17.6085 20.2998 17.641 19.0269 17.3857 18.617C17.205 18.3266 17.2224 18.2427 17.4607 18.2564C17.7144 18.2711 17.7144 18.1197 17.4614 17.4319C17.1506 16.5866 17.3119 15.9575 17.8927 15.7513C18.0985 15.6783 18.0568 15.379 17.6441 13.9676C17.5641 13.6942 17.6531 13.1724 17.8467 12.7811C18.1236 12.2208 18.1301 12.0895 17.8803 12.1183C17.4429 12.1685 17.3839 11.8368 17.8057 11.6992C18.29 11.5411 18.5927 10.8484 18.3465 10.4614C18.2274 10.2742 18.2354 10.0615 18.3656 9.95449C18.4888 9.85317 18.5401 9.61827 18.4795 9.43251C18.4189 9.24675 18.44 9.0099 18.5264 8.90593C18.6128 8.80196 18.5828 8.53288 18.4596 8.30786C18.2692 7.96013 18.2992 7.89472 18.6601 7.87127C19.0019 7.84918 19.1081 7.68518 19.2061 7.02786C19.2729 6.57909 19.4594 5.84807 19.6205 5.40337C19.7815 4.95873 19.9591 4.46912 20.0152 4.31558C20.0712 4.16204 20.0617 3.86711 19.9943 3.66036C19.9253 3.44901 19.9901 3.24576 20.1426 3.19601C20.3379 3.13229 20.3471 2.90379 20.1753 2.37744C19.9923 1.81647 19.7708 1.55853 19.2191 1.26353C18.824 1.05263 18.382 0.918615 18.2367 0.966003C18.0915 1.01339 17.8024 0.963685 17.5942 0.855602C17.2504 0.676685 17.2246 0.685113 17.3104 0.948199C17.3623 1.10727 17.2803 1.27804 17.1282 1.32767C16.9759 1.37735 16.8463 1.53514 16.8399 1.6784C16.8324 1.84341 16.4478 2.0689 15.7899 2.29353C15.1794 2.5021 14.6071 2.82673 14.4009 3.08121C14.2079 3.31935 13.8188 3.64778 13.5361 3.81129C13.2536 3.97457 12.9603 4.30837 12.8845 4.55312C12.7205 5.08287 12.4999 5.1958 12.3752 4.81359C12.2618 4.466 12.0766 4.52624 11.5373 5.08574C11.3021 5.32972 10.805 5.6294 10.4326 5.75173C10.0603 5.87382 9.78013 6.04935 9.81029 6.14177C9.84044 6.23419 9.54677 6.47789 9.15783 6.68322C8.7687 6.8886 8.21817 7.2597 7.93413 7.5078C7.65009 7.7559 7.22058 8.02314 6.97959 8.10177C6.7386 8.1804 6.53527 8.38424 6.52756 8.55481C6.51947 8.73711 6.28562 8.9393 5.96044 9.04539C5.65478 9.14512 5.40147 9.35447 5.39425 9.51307C5.3869 9.67924 5.221 9.80914 5.00131 9.82134C4.76862 9.83411 4.65181 9.93558 4.69986 10.0829C4.7484 10.2316 4.64184 10.2236 4.42156 10.0618C4.17294 9.87936 3.92338 9.32034 3.59808 8.21668C3.34153 7.34583 3.02126 6.52593 2.88632 6.39477C2.75138 6.26361 2.4949 5.869 2.31642 5.51799C2.13788 5.1668 1.85104 4.87152 1.67893 4.86168C1.50694 4.85159 1.38938 4.74368 1.41807 4.62147C1.48958 4.315 1.01089 4.49521 0.840379 4.83888ZM15.7421 6.65961C15.8601 7.07535 15.8609 7.4717 15.7436 7.56802C15.6292 7.66218 15.5922 8.09084 15.6615 8.52066C15.7308 8.95048 15.7165 9.32525 15.6298 9.35354C15.5431 9.38184 15.5128 9.52921 15.5624 9.6811C15.6119 9.83298 15.5305 9.99704 15.3815 10.0457C15.2325 10.0943 15.1511 10.2583 15.2006 10.4102C15.2502 10.5621 15.2058 10.7141 15.1021 10.7479C14.9984 10.7818 14.9605 10.9088 15.018 11.03C15.273 11.5687 15.2533 11.8736 14.9589 11.9433C14.775 11.9868 14.6649 12.1825 14.697 12.4079C14.7943 13.0856 14.6212 14.1339 14.2868 14.8918C14.0591 15.4081 14.0322 15.7502 14.1959 16.0492C14.3803 16.386 14.36 16.4696 14.0983 16.4546C13.8787 16.4421 13.8008 16.5346 13.865 16.7316C13.9181 16.8943 13.8396 17.0672 13.6906 17.1158C13.5415 17.1645 13.37 17.0601 13.3093 16.8838C13.2247 16.6388 13.1186 16.7459 12.8584 17.3397C12.671 17.7667 12.5608 18.2479 12.6134 18.4092C12.6861 18.632 12.5885 18.7102 12.2072 18.735C11.8295 18.7597 11.6033 18.9368 11.2918 19.4519C11.0644 19.8282 10.9213 20.199 10.9738 20.2758C11.1113 20.4768 10.7632 20.5555 10.5493 20.3715C10.3029 20.1598 9.93555 20.7677 10.149 21.034C10.3975 21.3442 10.2145 21.5216 9.84453 21.3292C9.66158 21.2341 9.43719 20.9268 9.34559 20.6461C9.22257 20.269 9.24967 20.1726 9.44923 20.2763C9.8274 20.473 10.1767 20.1302 10.0364 19.7002C9.97188 19.5024 9.99733 19.3605 10.0929 19.3845C10.3262 19.4433 10.5096 19.1644 10.6183 18.5859C10.6748 18.2843 10.6291 18.088 10.4947 18.054C10.1498 17.9672 10.1425 17.663 10.4825 17.5447C10.8161 17.4285 11.4163 16.5778 11.3366 16.3337C11.3105 16.2536 11.2254 16.3168 11.1474 16.4741C10.9494 16.8731 10.4498 16.6409 10.4173 16.135C10.3972 15.8209 10.4587 15.7662 10.715 15.8706C10.8927 15.943 11.0705 15.9371 11.1099 15.8576C11.1494 15.7782 11.3346 15.7925 11.5211 15.8895C11.9518 16.1134 12.3588 15.791 12.2123 15.3419C12.1376 15.1129 12.202 15.0051 12.4061 15.0168C12.5996 15.028 12.6763 14.926 12.6151 14.7385C12.562 14.5758 12.5999 14.4162 12.6993 14.3837C12.7986 14.3513 12.8422 14.2094 12.7962 14.0683C12.7502 13.9273 12.8189 13.7244 12.9489 13.6174C13.079 13.5106 13.1575 13.3377 13.1234 13.2332C13.0893 13.1288 12.9395 13.0831 12.7905 13.1318C12.6414 13.1804 12.4772 13.0904 12.4254 12.9317C12.3585 12.7268 12.4473 12.6428 12.7306 12.642C12.9753 12.6414 13.1028 12.5573 13.0595 12.4247C13.0207 12.3058 13.1265 12.2165 13.2946 12.2262C13.4642 12.2358 13.5672 12.143 13.5261 12.017C13.4854 11.8922 13.6081 11.6489 13.7986 11.4761C13.9891 11.3034 14.1798 10.8765 14.2226 10.5273C14.2653 10.178 14.3724 9.74709 14.4607 9.56936C14.6849 9.11754 14.5695 8.88203 13.9553 8.53792C13.2962 8.16875 12.8862 8.28703 12.7029 8.89906C12.6255 9.15736 12.4464 9.49365 12.3049 9.64616C12.05 9.92059 11.9799 9.77481 11.7652 8.52647C11.7516 8.44678 11.935 8.31831 12.1727 8.24074C12.4105 8.16318 12.6109 7.96926 12.618 7.80969C12.6257 7.63808 12.877 7.44344 13.2335 7.33326C14.08 7.0713 15.1713 6.47165 15.3098 6.19239C15.4874 5.83439 15.5164 5.86548 15.7421 6.65961ZM8.81417 10.2143C8.87029 10.4482 8.99466 10.4538 9.37205 10.2394C9.90803 9.93521 10.0262 10.067 9.806 10.7234C9.63344 11.2385 9.82009 11.4528 10.3041 11.2949C11.0191 11.0616 10.7995 11.9674 10.0576 12.3107C9.62763 12.5096 9.41646 12.4757 8.96356 12.1345C8.37498 11.6912 7.63986 11.7422 7.7943 12.2156C7.85034 12.3873 8.05493 12.4361 8.33603 12.3444C8.87853 12.1674 9.0496 12.5263 8.65269 13.0086C8.33616 13.393 8.41624 13.9472 8.7717 13.8329C8.89617 13.7929 8.80458 13.9949 8.56831 14.2816C8.31674 14.5869 8.04581 14.7594 7.9145 14.6976C7.49942 14.5024 7.37388 14.6916 7.59657 15.1763C7.81542 15.6523 7.7118 15.7525 6.83506 15.9122C6.53412 15.967 6.46641 15.2951 6.73579 14.9255C6.97974 14.5907 6.97189 14.5464 6.65755 14.4817C6.46554 14.4421 6.25161 14.4781 6.18213 14.5616C6.11284 14.6452 5.91545 14.6228 5.74341 14.5121C5.49976 14.3553 5.45933 14.2363 5.56049 13.9741C5.63196 13.7888 5.60126 13.4552 5.49222 13.2325C5.1631 12.5601 5.51998 12.08 6.59479 11.7499C7.12018 11.5885 7.61483 11.3261 7.69381 11.1669C7.77279 11.0077 7.98375 10.8297 8.1626 10.7713C8.34145 10.713 8.45796 10.6063 8.42141 10.5341C8.23523 10.1669 8.26433 9.89889 8.48978 9.90559C8.62867 9.90977 8.7745 10.0486 8.81417 10.2143ZM11.7084 11.0404C11.8028 11.1216 11.7939 11.2162 11.6888 11.2505C11.5836 11.2848 11.4704 11.2301 11.4374 11.1288C11.4044 11.0275 11.4131 10.933 11.457 10.9187C11.5009 10.9044 11.6139 10.9592 11.7084 11.0404ZM5.24786 15.0199C5.23811 15.1854 5.18106 15.1557 5.10241 14.9441C5.03133 14.7526 5.03852 14.63 5.11844 14.6716C5.19836 14.7131 5.2567 14.8699 5.24786 15.0199ZM11.4785 14.9305C11.3483 15.037 11.2182 15.2141 11.1894 15.3239C11.1606 15.4339 10.9909 15.4296 10.812 15.3146C10.5294 15.1326 10.5671 15.0814 11.1012 14.9212C11.4388 14.8198 11.6086 14.8241 11.4785 14.9305ZM8.43542 19.2888C8.4267 19.4317 8.35188 19.3415 8.26928 19.0883C8.18669 18.8352 8.19394 18.7183 8.28525 18.8285C8.3768 18.9388 8.44437 19.1459 8.43542 19.2888ZM8.81492 20.8575C8.8664 21.0153 8.81058 21.1199 8.69079 21.0897C8.57101 21.0595 8.44761 20.957 8.4165 20.8616C8.38538 20.7662 8.44127 20.6618 8.54063 20.6294C8.63998 20.597 8.76345 20.6997 8.81492 20.8575ZM11.9425 20.0287C11.9921 20.1806 11.9514 20.3314 11.852 20.3638C11.7526 20.3963 11.6308 20.2985 11.5812 20.1466C11.5317 19.9947 11.5724 19.8439 11.6718 19.8115C11.7712 19.7791 11.893 19.8769 11.9425 20.0287ZM11.4962 21.7239C11.5257 21.8143 11.4279 21.9281 11.2789 21.9767C11.1298 22.0254 10.9682 21.9435 10.9197 21.7947C10.866 21.6301 10.9509 21.5313 11.137 21.5419C11.3051 21.5516 11.4667 21.6335 11.4962 21.7239ZM10.3932 22.185C10.3532 22.2657 10.1994 22.3232 10.0518 22.3125C9.88848 22.3008 9.91706 22.2432 10.1246 22.1657C10.3125 22.0957 10.4332 22.1044 10.3932 22.185ZM13.6271 21.5161C13.6767 21.668 13.6359 21.8188 13.5366 21.8512C13.4372 21.8837 13.3154 21.7859 13.2658 21.634C13.2163 21.4821 13.257 21.3313 13.3564 21.2989C13.4557 21.2665 13.5776 21.3643 13.6271 21.5161ZM11.1621 22.9484C11.1549 23.1094 11.2303 23.2148 11.3296 23.1824C11.429 23.15 11.5159 22.9972 11.5228 22.8427C11.5361 22.5457 12.4817 21.9188 12.7968 21.9981C12.8991 22.024 12.9766 22.181 12.9692 22.3472C12.9618 22.5136 12.8728 22.6286 12.7715 22.6032C12.6704 22.5777 12.5561 22.7429 12.5174 22.9705C12.4608 23.3032 12.5196 23.38 12.8187 23.3635C13.0229 23.3523 13.2492 23.2238 13.3216 23.078C13.4164 22.887 13.4857 22.9499 13.5703 23.3049C13.6738 23.7386 13.6314 23.7934 13.2083 23.7705C12.5791 23.7362 12.5959 23.7195 12.7976 24.1803C12.8941 24.4008 12.8936 24.4539 12.7964 24.2982C12.6993 24.1425 12.3395 24.0079 11.9968 23.9989C11.1622 23.9773 10.9916 24.0503 11.2178 24.3327C11.5 24.6849 11.1975 24.9211 10.8583 24.6136C10.6038 24.3829 10.5777 24.3876 10.6579 24.6499C10.7088 24.8156 10.6679 25.0843 10.5674 25.2469C10.3787 25.5525 10.6833 26.2451 10.9658 26.1529C11.3555 26.0258 11.2287 26.5795 10.8323 26.7351C10.5596 26.8422 10.3574 26.8104 10.3058 26.6522C10.2597 26.511 10.3229 26.3598 10.446 26.316C10.5826 26.2676 10.5158 26.1814 10.2739 26.0951C9.79881 25.9254 9.62536 25.4471 9.77178 24.7092C9.86816 24.2235 9.89382 24.2041 10.0104 24.5295C10.1322 24.8698 10.1534 24.8576 10.3296 24.3451C10.435 24.0385 10.6277 23.8235 10.766 23.8582C10.9106 23.8946 10.9746 23.8012 10.92 23.6336C10.8685 23.4758 10.7044 23.3864 10.5554 23.435C10.4063 23.4836 10.241 23.3903 10.1879 23.2276C10.1267 23.0402 10.2034 22.9381 10.3969 22.9494C10.5649 22.9589 10.6771 22.8891 10.6461 22.7943C10.6152 22.6995 10.7216 22.6293 10.8825 22.6385C11.0435 22.6478 11.1693 22.7872 11.1621 22.9484ZM10.1302 23.6636C10.1448 23.7083 10.0921 23.8225 10.0132 23.9175C9.93424 24.0125 9.84099 24.0024 9.80603 23.8952C9.77107 23.7881 9.82371 23.6737 9.92307 23.6413C10.0224 23.6089 10.1156 23.6188 10.1302 23.6636ZM14.4561 23.0933C14.2838 23.4406 14.2578 23.4491 14.172 23.1862C14.1201 23.0271 14.1589 22.8704 14.2583 22.838C14.3577 22.8056 14.4011 22.6311 14.3548 22.45C14.2746 22.137 14.2797 22.1354 14.4582 22.4159C14.5613 22.5782 14.5604 22.883 14.4561 23.0933ZM12.6086 24.9979C12.6244 25.1659 12.7821 25.1474 13.1381 24.9362C13.7731 24.5593 13.7968 24.6367 13.332 25.5734C13.1134 26.0145 13.0377 26.4254 13.1497 26.5652C13.2549 26.6965 13.256 26.8316 13.1523 26.8655C13.0486 26.8993 12.9106 26.6807 12.8456 26.3799C12.7806 26.079 12.5858 25.7417 12.4128 25.6303C12.0539 25.3993 12.0122 24.7323 12.3576 24.7482C12.4834 24.7538 12.5964 24.8662 12.6086 24.9979ZM11.4316 27.9989C11.4509 28.4067 11.413 28.4659 11.2773 28.2411C11.1783 28.0772 11.0221 27.9679 10.9301 27.9979C10.838 28.028 10.6942 27.8428 10.6106 27.5866C10.527 27.3301 10.3216 27.1125 10.1542 27.103C9.98675 27.0933 9.8693 27.0022 9.89309 26.9006C9.91671 26.7989 10.2669 26.8829 10.6712 27.0873C11.2782 27.3942 11.4105 27.5527 11.4316 27.9989ZM12.6469 28.9266C12.6902 29.0592 12.6586 29.3673 12.5769 29.6115C12.4363 30.0314 12.4174 30.0231 12.2273 29.4589C12.089 29.0486 12.1109 28.8349 12.2973 28.7741C12.4463 28.7254 12.6037 28.7941 12.6469 28.9266ZM12.2036 43.9786C11.4726 44.7944 11.146 45.4483 11.2613 45.8666C11.5367 46.8668 11.5344 46.8722 10.7697 47.0783C9.86201 47.3231 9.71924 47.7653 10.2765 48.6063C11.0866 49.8292 12.1431 50.6205 12.7158 50.4337C12.9037 50.3724 13.3488 50.5072 13.7052 50.7332C14.0616 50.9591 14.4463 51.0675 14.5601 50.9739C14.6741 50.8803 14.8697 50.9482 14.9951 51.1247C15.2101 51.4277 15.2487 51.4192 15.6795 50.9753C15.9305 50.7166 16.3024 50.4957 16.5058 50.4845C16.7092 50.4734 16.8585 50.4096 16.8376 50.3429C16.7912 50.1952 17.5379 49.4715 17.8374 49.3738C18.0997 49.2882 18.1435 48.7614 17.9122 48.4728C17.6709 48.1717 17.8077 46.8077 18.1038 46.5642C18.299 46.4037 18.2777 46.2192 18.0066 45.7196C17.8156 45.3682 17.6028 44.955 17.5334 44.8018C17.3746 44.4505 16.9742 43.9412 16.6328 43.6557C16.4882 43.5348 16.2828 43.3193 16.1765 43.1768C15.9052 42.8127 13.9544 42.8234 13.864 43.1894C13.8193 43.3704 13.7738 43.392 13.7267 43.2544C13.6108 42.9145 12.8205 43.2903 12.2036 43.9786ZM12.5835 44.0482C12.5981 44.0929 12.5454 44.2071 12.4665 44.3021C12.3875 44.3971 12.2943 44.387 12.2593 44.2799C12.2244 44.1727 12.277 44.0584 12.3764 44.0259C12.4757 43.9935 12.5689 44.0035 12.5835 44.0482ZM15.3247 45.0982C15.3938 45.3101 14.5151 46.18 14.0927 46.3178C13.6285 46.4693 13.5292 46.0064 13.9387 45.5982C14.5731 44.9657 15.2068 44.737 15.3247 45.0982Z" fill="#D9D9D9"/>
</svg>
